<svg width="128" height="128" viewBox="0 0 128 128" fill="none" xmlns="http://www.w3.org/2000/svg">
<path d="M20.5 67.5C20.5 67.5 20.5 63.5 20.5 51.5C20.5 39.5 30.5 31 41.5 31C52.5 31 103.205 31 103.205 31M94 18C107.5 33 105 31 94 43.5" stroke="white" stroke-width="10" stroke-linecap="round"/>
<path d="M105.711 61C105.711 61 105.711 65 105.711 77C105.711 89 95.7113 97.5 84.7113 97.5C73.7113 97.5 23.0066 97.5 23.0066 97.5M32.2113 110.5C18.7113 95.5 21.2113 97.5 32.2113 85" stroke="white" stroke-width="10" stroke-linecap="round"/>
<line x1="61.7889" y1="50.3666" x2="47.3666" y2="79.2111" stroke="white" stroke-width="8" stroke-linecap="round"/>
<path d="M62.2111 50.3666L76.6334 79.2111" stroke="white" stroke-width="8" stroke-linecap="round"/>
<line x1="69" y1="69" x2="54" y2="69" stroke="white" stroke-width="8"/>
</svg>
