<svg width="128" height="128" viewBox="0 0 128 128" fill="none" xmlns="http://www.w3.org/2000/svg">
<g clip-path="url(#clip0_1_20)">
<path d="M19.5 86C16.7386 86 14.5 88.2386 14.5 91C14.5 93.7614 16.7386 96 19.5 96V91V86ZM104 43.5H109V33.5H104V38.5V43.5ZM19.5 91C19.5 96 19.5 96 19.5001 96C19.5001 96 19.5001 96 19.5002 96C19.5003 96 19.5004 96 19.5005 96C19.5006 96 19.5007 96 19.5008 96C19.501 96 19.5011 96 19.5013 96C19.5015 96 19.5017 96 19.5019 96C19.5021 96 19.5023 96 19.5025 96C19.5028 96 19.503 96 19.5033 96C19.5036 96 19.5039 96 19.5042 96C19.5045 96 19.5049 96 19.5052 96C19.5056 96 19.5059 96 19.5063 96C19.5067 96 19.5071 96 19.5075 96C19.5079 96 19.5084 96 19.5088 96C19.5093 96 19.5097 96 19.5102 96C19.5107 96 19.5112 96 19.5118 96C19.5123 96 19.5128 96 19.5134 96C19.514 96 19.5145 96 19.5151 96C19.5157 96 19.5164 96 19.517 96C19.5176 96 19.5183 96 19.5189 96C19.5196 96 19.5203 96 19.521 96C19.5217 96 19.5224 96 19.5232 96C19.5239 96 19.5247 96 19.5255 96C19.5263 96 19.5271 96 19.5279 96C19.5287 96 19.5295 96 19.5304 96C19.5312 96 19.5321 96 19.533 96C19.5339 96 19.5348 96 19.5357 96C19.5367 96 19.5376 96 19.5386 96C19.5395 96 19.5405 96 19.5415 96C19.5425 96 19.5435 96 19.5446 96C19.5456 96 19.5467 96 19.5478 96C19.5488 96 19.5499 96 19.551 96C19.5522 96 19.5533 96 19.5544 96C19.5556 96 19.5568 96 19.558 96C19.5591 96 19.5604 96 19.5616 96C19.5628 96 19.5641 96 19.5653 96C19.5666 96 19.5679 96 19.5692 96C19.5705 96 19.5718 96 19.5731 96C19.5745 96 19.5758 96 19.5772 96C19.5786 96 19.58 96 19.5814 96C19.5828 96 19.5843 96 19.5857 96C19.5872 96 19.5887 96 19.5902 96C19.5917 96 19.5932 96 19.5947 96C19.5962 96 19.5978 96 19.5994 96C19.6009 96 19.6025 96 19.6041 96C19.6058 96 19.6074 96 19.609 96C19.6107 96 19.6124 96 19.614 96C19.6157 96 19.6174 96 19.6192 96C19.6209 96 19.6227 96 19.6244 96C19.6262 96 19.628 96 19.6298 96C19.6316 96 19.6334 96 19.6353 96C19.6371 96 19.639 96 19.6409 96C19.6428 96 19.6447 96 19.6466 96C19.6485 96 19.6505 96 19.6524 96C19.6544 96 19.6564 96 19.6584 96C19.6604 96 19.6624 96 19.6645 96C19.6665 96 19.6686 96 19.6707 96C19.6727 96 19.6749 96 19.677 96C19.6791 96 19.6812 96 19.6834 96C19.6856 96 19.6878 96 19.69 96C19.6922 96 19.6944 96 19.6967 96C19.6989 96 19.7012 96 19.7035 96C19.7058 96 19.7081 96 19.7104 96C19.7127 96 19.7151 96 19.7174 96C19.7198 96 19.7222 96 19.7246 96C19.727 96 19.7295 96 19.7319 96C19.7344 96 19.7368 96 19.7393 96C19.7418 96 19.7443 96 19.7469 96C19.7494 96 19.752 96 19.7545 96C19.7571 96 19.7597 96 19.7623 96C19.7649 96 19.7676 96 19.7702 96C19.7729 96 19.7756 96 19.7783 96C19.781 96 19.7837 96 19.7864 96C19.7892 96 19.7919 96 19.7947 96C19.7975 96 19.8003 96 19.8031 96C19.806 96 19.8088 96 19.8117 96C19.8145 96 19.8174 96 19.8203 96C19.8233 96 19.8262 96 19.8291 96C19.8321 96 19.8351 96 19.8381 96C19.8411 96 19.8441 96 19.8471 96C19.8502 96 19.8532 96 19.8563 96C19.8594 96 19.8625 96 19.8656 96C19.8687 96 19.8719 96 19.875 96C19.8782 96 19.8814 96 19.8846 96C19.8878 96 19.891 96 19.8943 96C19.8975 96 19.9008 96 19.9041 96C19.9074 96 19.9107 96 19.9141 96C19.9174 96 19.9208 96 19.9241 96C19.9275 96 19.9309 96 19.9343 96C19.9378 96 19.9412 96 19.9447 96C19.9482 96 19.9516 96 19.9552 96C19.9587 96 19.9622 96 19.9658 96C19.9693 96 19.9729 96 19.9765 96C19.9801 96 19.9837 96 19.9874 96C19.991 96 19.9947 96 19.9984 96C20.002 96 20.0058 96 20.0095 96C20.0132 96 20.017 96 20.0208 96C20.0245 96 20.0283 96 20.0321 96C20.036 96 20.0398 96 20.0437 96C20.0475 96 20.0514 96 20.0553 96C20.0593 96 20.0632 96 20.0671 96C20.0711 96 20.0751 96 20.0791 96C20.0831 96 20.0871 96 20.0911 96C20.0952 96 20.0992 96 20.1033 96C20.1074 96 20.1115 96 20.1157 96C20.1198 96 20.124 96 20.1281 96C20.1323 96 20.1365 96 20.1408 96C20.145 96 20.1492 96 20.1535 96C20.1578 96 20.1621 96 20.1664 96C20.1707 96 20.175 96 20.1794 96C20.1838 96 20.1881 96 20.1925 96C20.197 96 20.2014 96 20.2058 96C20.2103 96 20.2148 96 20.2193 96C20.2238 96 20.2283 96 20.2328 96C20.2374 96 20.242 96 20.2465 96C20.2511 96 20.2557 96 20.2604 96C20.265 96 20.2697 96 20.2744 96C20.2791 96 20.2838 96 20.2885 96C20.2932 96 20.298 96 20.3028 96C20.3075 96 20.3123 96 20.3172 96C20.322 96 20.3268 96 20.3317 96C20.3366 96 20.3415 96 20.3464 96C20.3513 96 20.3562 96 20.3612 96C20.3662 96 20.3712 96 20.3762 96C20.3812 96 20.3862 96 20.3913 96C20.3963 96 20.4014 96 20.4065 96C20.4116 96 20.4168 96 20.4219 96C20.4271 96 20.4322 96 20.4374 96C20.4427 96 20.4479 96 20.4531 96C20.4584 96 20.4636 96 20.4689 96C20.4742 96 20.4796 96 20.4849 96C20.4903 96 20.4956 96 20.501 96C20.5064 96 20.5118 96 20.5173 96C20.5227 96 20.5282 96 20.5337 96C20.5391 96 20.5447 96 20.5502 96C20.5557 96 20.5613 96 20.5669 96C20.5725 96 20.5781 96 20.5837 96C20.5893 96 20.595 96 20.6007 96C20.6064 96 20.6121 96 20.6178 96C20.6235 96 20.6293 96 20.6351 96C20.6408 96 20.6467 96 20.6525 96C20.6583 96 20.6642 96 20.67 96C20.6759 96 20.6818 96 20.6877 96C20.6937 96 20.6996 96 20.7056 96C20.7116 96 20.7176 96 20.7236 96C20.7296 96 20.7357 96 20.7418 96C20.7478 96 20.7539 96 20.7601 96C20.7662 96 20.7723 96 20.7785 96C20.7847 96 20.7909 96 20.7971 96C20.8033 96 20.8096 96 20.8158 96C20.8221 96 20.8284 96 20.8347 96C20.8411 96 20.8474 96 20.8538 96C20.8602 96 20.8666 96 20.873 96C20.8794 96 20.8858 96 20.8923 96C20.8988 96 20.9053 96 20.9118 96C20.9183 96 20.9249 96 20.9315 96C20.938 96 20.9446 96 20.9513 96C20.9579 96 20.9645 96 20.9712 96C20.9779 96 20.9846 96 20.9913 96C20.998 96 21.0048 96 21.0116 96C21.0184 96 21.0252 96 21.032 96C21.0388 96 21.0457 96 21.0525 96C21.0594 96 21.0663 96 21.0733 96C21.0802 96 21.0871 96 21.0941 96C21.1011 96 21.1081 96 21.1151 96C21.1222 96 21.1292 96 21.1363 96C21.1434 96 21.1505 96 21.1577 96C21.1648 96 21.172 96 21.1791 96C21.1863 96 21.1935 96 21.2008 96C21.208 96 21.2153 96 21.2226 96C21.2299 96 21.2372 96 21.2445 96C21.2519 96 21.2593 96 21.2666 96C21.274 96 21.2815 96 21.2889 96C21.2964 96 21.3038 96 21.3113 96C21.3188 96 21.3264 96 21.3339 96C21.3415 96 21.349 96 21.3567 96C21.3643 96 21.3719 96 21.3795 96C21.3872 96 21.3949 96 21.4026 96C21.4103 96 21.418 96 21.4258 96C21.4336 96 21.4414 96 21.4492 96C21.457 96 21.4648 96 21.4727 96C21.4806 96 21.4885 96 21.4964 96C21.5043 96 21.5123 96 21.5202 96C21.5282 96 21.5362 96 21.5443 96C21.5523 96 21.5603 96 21.5684 96C21.5765 96 21.5846 96 21.5928 96C21.6009 96 21.6091 96 21.6172 96C21.6254 96 21.6337 96 21.6419 96C21.6501 96 21.6584 96 21.6667 96C21.675 96 21.6833 96 21.6917 96C21.7 96 21.7084 96 21.7168 96C21.7252 96 21.7337 96 21.7421 96C21.7506 96 21.7591 96 21.7676 96C21.7761 96 21.7846 96 21.7932 96C21.8018 96 21.8104 96 21.819 96C21.8276 96 21.8363 96 21.8449 96C21.8536 96 21.8623 96 21.8711 96C21.8798 96 21.8886 96 21.8973 96C21.9061 96 21.9149 96 21.9238 96C21.9326 96 21.9415 96 21.9504 96C21.9593 96 21.9682 96 21.9772 96C21.9861 96 21.9951 96 22.0041 96C22.0131 96 22.0222 96 22.0312 96C22.0403 96 22.0494 96 22.0585 96C22.0676 96 22.0768 96 22.0859 96C22.0951 96 22.1043 96 22.1135 96C22.1228 96 22.132 96 22.1413 96C22.1506 96 22.1599 96 22.1692 96C22.1786 96 22.188 96 22.1974 96C22.2068 96 22.2162 96 22.2256 96C22.2351 96 22.2446 96 22.2541 96C22.2636 96 22.2731 96 22.2827 96C22.2923 96 22.3019 96 22.3115 96C22.3211 96 22.3307 96 22.3404 96C22.3501 96 22.3598 96 22.3695 96C22.3793 96 22.389 96 22.3988 96C22.4086 96 22.4185 96 22.4283 96C22.4382 96 22.448 96 22.4579 96C22.4678 96 22.4778 96 22.4877 96C22.4977 96 22.5077 96 22.5177 96C22.5277 96 22.5378 96 22.5479 96C22.5579 96 22.568 96 22.5782 96C22.5883 96 22.5985 96 22.6087 96C22.6189 96 22.6291 96 22.6393 96C22.6496 96 22.6599 96 22.6702 96C22.6805 96 22.6908 96 22.7012 96C22.7115 96 22.7219 96 22.7324 96C22.7428 96 22.7532 96 22.7637 96C22.7742 96 22.7847 96 22.7952 96C22.8058 96 22.8163 96 22.8269 96C22.8375 96 22.8482 96 22.8588 96C22.8695 96 22.8802 96 22.8909 96C22.9016 96 22.9123 96 22.9231 96C22.9339 96 22.9447 96 22.9555 96C22.9663 96 22.9772 96 22.9881 96C22.999 96 23.0099 96 23.0208 96C23.0318 96 23.0428 96 23.0538 96C23.0648 96 23.0758 96 23.0869 96C23.098 96 23.1091 96 23.1202 96C23.1313 96 23.1425 96 23.1536 96C23.1648 96 23.176 96 23.1873 96C23.1985 96 23.2098 96 23.2211 96C23.2324 96 23.2437 96 23.2551 96C23.2665 96 23.2779 96 23.2893 96C23.3007 96 23.3122 96 23.3236 96C23.3351 96 23.3466 96 23.3582 96C23.3697 96 23.3813 96 23.3929 96C23.4045 96 23.4161 96 23.4278 96C23.4394 96 23.4511 96 23.4629 96C23.4746 96 23.4863 96 23.4981 96C23.5099 96 23.5217 96 23.5336 96C23.5454 96 23.5573 96 23.5692 96C23.5811 96 23.593 96 23.605 96C23.6169 96 23.6289 96 23.641 96C23.653 96 23.665 96 23.6771 96C23.6892 96 23.7013 96 23.7135 96C23.7256 96 23.7378 96 23.75 96C23.7622 96 23.7744 96 23.7867 96C23.799 96 23.8113 96 23.8236 96C23.8359 96 23.8483 96 23.8607 96C23.8731 96 23.8855 96 23.898 96C23.9104 96 23.9229 96 23.9354 96C23.9479 96 23.9605 96 23.973 96C23.9856 96 23.9982 96 24.0109 96C24.0235 96 24.0362 96 24.0489 96C24.0616 96 24.0743 96 24.087 96C24.0998 96 24.1126 96 24.1254 96C24.1382 96 24.1511 96 24.164 96C24.1769 96 24.1898 96 24.2027 96C24.2157 96 24.2287 96 24.2417 96C24.2547 96 24.2677 96 24.2808 96C24.2939 96 24.307 96 24.3201 96C24.3332 96 24.3464 96 24.3596 96C24.3728 96 24.386 96 24.3993 96C24.4125 96 24.4258 96 24.4391 96C24.4525 96 24.4658 96 24.4792 96C24.4926 96 24.506 96 24.5195 96C24.5329 96 24.5464 96 24.5599 96C24.5734 96 24.587 96 24.6005 96C24.6141 96 24.6277 96 24.6414 96C24.655 96 24.6687 96 24.6824 96C24.6961 96 24.7098 96 24.7236 96C24.7373 96 24.7511 96 24.765 96C24.7788 96 24.7926 96 24.8065 96C24.8204 96 24.8344 96 24.8483 96C24.8623 96 24.8763 96 24.8903 96C24.9043 96 24.9184 96 24.9324 96C24.9465 96 24.9606 96 24.9748 96C24.9889 96 25.0031 96 25.0173 96C25.0315 96 25.0458 96 25.0601 96C25.0743 96 25.0887 96 25.103 96C25.1173 96 25.1317 96 25.1461 96C25.1605 96 25.175 96 25.1894 96C25.2039 96 25.2184 96 25.233 96C25.2475 96 25.2621 96 25.2767 96C25.2913 96 25.3059 96 25.3206 96C25.3352 96 25.3499 96 25.3647 96C25.3794 96 25.3942 96 25.409 96C25.4238 96 25.4386 96 25.4534 96C25.4683 96 25.4832 96 25.4981 96C25.5131 96 25.528 96 25.543 96C25.558 96 25.573 96 25.5881 96C25.6032 96 25.6182 96 25.6334 96C25.6485 96 25.6637 96 25.6788 96C25.694 96 25.7093 96 25.7245 96C25.7398 96 25.7551 96 25.7704 96C25.7857 96 25.8011 96 25.8165 96C25.8318 96 25.8473 96 25.8627 96C25.8782 96 25.8937 96 25.9092 96C25.9247 96 25.9403 96 25.9559 96C25.9714 96 25.9871 96 26.0027 96C26.0184 96 26.0341 96 26.0498 96C26.0655 96 26.0813 96 26.097 96C26.1128 96 26.1287 96 26.1445 96C26.1604 96 26.1763 96 26.1922 96C26.2081 96 26.2241 96 26.2401 96C26.256 96 26.2721 96 26.2881 96C26.3042 96 26.3203 96 26.3364 96C26.3525 96 26.3687 96 26.3849 96C26.4011 96 26.4173 96 26.4335 96C26.4498 96 26.4661 96 26.4824 96C26.4987 96 26.5151 96 26.5315 96C26.5479 96 26.5643 96 26.5808 96C26.5973 96 26.6137 96 26.6303 96C26.6468 96 26.6634 96 26.68 96C26.6966 96 26.7132 96 26.7299 96C26.7465 96 26.7632 96 26.78 96C26.7967 96 26.8135 96 26.8303 96C26.8471 96 26.8639 96 26.8808 96C26.8977 96 26.9146 96 26.9315 96C26.9485 96 26.9654 96 26.9824 96C26.9994 96 27.0165 96 27.0336 96C27.0506 96 27.0678 96 27.0849 96C27.1021 96 27.1192 96 27.1365 96C27.1537 96 27.1709 96 27.1882 96C27.2055 96 27.2228 96 27.2402 96C27.2575 96 27.2749 96 27.2923 96C27.3098 96 27.3272 96 27.3447 96C27.3622 96 27.3797 96 27.3973 96C27.4148 96 27.4324 96 27.4501 96C27.4677 96 27.4854 96 27.5031 96C27.5208 96 27.5385 96 27.5563 96C27.5741 96 27.5919 96 27.6097 96C27.6276 96 27.6454 96 27.6633 96C27.6813 96 27.6992 96 27.7172 96C27.7352 96 27.7532 96 27.7712 96C27.7893 96 27.8074 96 27.8255 96C27.8436 96 27.8618 96 27.88 96C27.8982 96 27.9164 96 27.9347 96C27.9529 96 27.9712 96 27.9896 96C28.0079 96 28.0263 96 28.0447 96C28.0631 96 28.0815 96 28.1 96C28.1185 96 28.137 96 28.1555 96C28.1741 96 28.1926 96 28.2113 96C28.2299 96 28.2485 96 28.2672 96C28.2859 96 28.3046 96 28.3234 96C28.3422 96 28.361 96 28.3798 96C28.3986 96 28.4175 96 28.4364 96C28.4553 96 28.4742 96 28.4932 96C28.5122 96 28.5312 96 28.5502 96C28.5693 96 28.5884 96 28.6075 96C28.6266 96 28.6458 96 28.665 96C28.6841 96 28.7034 96 28.7226 96C28.7419 96 28.7612 96 28.7805 96C28.7999 96 28.8192 96 28.8386 96C28.8581 96 28.8775 96 28.897 96C28.9165 96 28.936 96 28.9555 96C28.9751 96 28.9947 96 29.0143 96C29.0339 96 29.0536 96 29.0733 96C29.093 96 29.1127 96 29.1325 96C29.1522 96 29.172 96 29.1919 96C29.2117 96 29.2316 96 29.2515 96C29.2714 96 29.2914 96 29.3114 96C29.3314 96 29.3514 96 29.3715 96C29.3915 96 29.4116 96 29.4318 96C29.4519 96 29.4721 96 29.4923 96C29.5125 96 29.5327 96 29.553 96C29.5733 96 29.5936 96 29.614 96C29.6343 96 29.6547 96 29.6751 96C29.6956 96 29.716 96 29.7365 96C29.7571 96 29.7776 96 29.7982 96C29.8187 96 29.8394 96 29.86 96C29.8807 96 29.9014 96 29.9221 96C29.9428 96 29.9636 96 29.9844 96C30.0052 96 30.026 96 30.0469 96C30.0677 96 30.0887 96 30.1096 96C30.1306 96 30.1515 96 30.1726 96C30.1936 96 30.2146 96 30.2357 96C30.2568 96 30.278 96 30.2992 96C30.3203 96 30.3415 96 30.3628 96C30.384 96 30.4053 96 30.4266 96C30.448 96 30.4693 96 30.4907 96C30.5121 96 30.5335 96 30.555 96C30.5765 96 30.598 96 30.6195 96C30.6411 96 30.6627 96 30.6843 96C30.7059 96 30.7276 96 30.7493 96C30.771 96 30.7927 96 30.8145 96C30.8363 96 30.8581 96 30.8799 96C30.9018 96 30.9237 96 30.9456 96C30.9675 96 30.9895 96 31.0115 96C31.0335 96 31.0555 96 31.0776 96C31.0997 96 31.1218 96 31.144 96C31.1661 96 31.1883 96 31.2105 96C31.2328 96 31.255 96 31.2773 96C31.2996 96 31.322 96 31.3444 96C31.3667 96 31.3892 96 31.4116 96C31.4341 96 31.4566 96 31.4791 96C31.5017 96 31.5242 96 31.5468 96C31.5695 96 31.5921 96 31.6148 96C31.6375 96 31.6602 96 31.683 96C31.7057 96 31.7286 96 31.7514 96C31.7742 96 31.7971 96 31.82 96C31.843 96 31.8659 96 31.8889 96C31.9119 96 31.935 96 31.958 96C31.9811 96 32.0042 96 32.0274 96C32.0505 96 32.0737 96 32.0969 96C32.1202 96 32.1434 96 32.1667 96C32.1901 96 32.2134 96 32.2368 96C32.2602 96 32.2836 96 32.3071 96C32.3305 96 32.354 96 32.3776 96C32.4011 96 32.4247 96 32.4483 96C32.4719 96 32.4956 96 32.5193 96C32.543 96 32.5667 96 32.5905 96C32.6143 96 32.6381 96 32.6619 96C32.6858 96 32.7097 96 32.7336 96C32.7576 96 32.7815 96 32.8055 96C32.8296 96 32.8536 96 32.8777 96C32.9018 96 32.9259 96 32.9501 96C32.9743 96 32.9985 96 33.0227 96C33.047 96 33.0712 96 33.0956 96C33.1199 96 33.1443 96 33.1687 96C33.1931 96 33.2175 96 33.242 96C33.2665 96 33.291 96 33.3156 96C33.3401 96 33.3648 96 33.3894 96C33.414 96 33.4387 96 33.4634 96C33.4882 96 33.5129 96 33.5377 96C33.5625 96 33.5874 96 33.6123 96C33.6372 96 33.6621 96 33.687 96C33.712 96 33.737 96 33.762 96C33.7871 96 33.8122 96 33.8373 96C33.8624 96 33.8876 96 33.9128 96C33.938 96 33.9632 96 33.9885 96C34.0138 96 34.0391 96 34.0645 96C34.0898 96 34.1153 96 34.1407 96C34.1661 96 34.1916 96 34.2172 96C34.2427 96 34.2682 96 34.2938 96C34.3195 96 34.3451 96 34.3708 96C34.3965 96 34.4222 96 34.448 96C34.4737 96 34.4995 96 34.5254 96C34.5512 96 34.5771 96 34.6031 96C34.629 96 34.655 96 34.681 96C34.707 96 34.733 96 34.7591 96C34.7852 96 34.8113 96 34.8375 96C34.8637 96 34.8899 96 34.9162 96C34.9424 96 34.9687 96 34.9951 96C35.0214 96 35.0478 96 35.0742 96C35.1006 96 35.1271 96 35.1536 96C35.1801 96 35.2066 96 35.2332 96C35.2598 96 35.2864 96 35.3131 96C35.3397 96 35.3664 96 35.3932 96C35.4199 96 35.4467 96 35.4735 96C35.5004 96 35.5272 96 35.5541 96C35.5811 96 35.608 96 35.635 96C35.662 96 35.689 96 35.7161 96C35.7432 96 35.7703 96 35.7975 96C35.8246 96 35.8518 96 35.8791 96C35.9063 96 35.9336 96 35.9609 96C35.9882 96 36.0156 96 36.043 96C36.0704 96 36.0979 96 36.1253 96C36.1528 96 36.1804 96 36.2079 96C36.2355 96 36.2631 96 36.2908 96C36.3184 96 36.3461 96 36.3739 96C36.4016 96 36.4294 96 36.4572 96C36.4851 96 36.5129 96 36.5408 96C36.5687 96 36.5967 96 36.6247 96C36.6527 96 36.6807 96 36.7088 96C36.7369 96 36.765 96 36.7931 96C36.8213 96 36.8495 96 36.8777 96C36.906 96 36.9343 96 36.9626 96C36.9909 96 37.0193 96 37.0477 96C37.0761 96 37.1046 96 37.1331 96C37.1616 96 37.1901 96 37.2187 96C37.2473 96 37.2759 96 37.3045 96C37.3332 96 37.3619 96 37.3907 96C37.4194 96 37.4482 96 37.477 96C37.5059 96 37.5347 96 37.5637 96C37.5926 96 37.6215 96 37.6505 96C37.6796 96 37.7086 96 37.7377 96C37.7668 96 37.7959 96 37.8251 96C37.8543 96 37.8835 96 37.9127 96C37.942 96 37.9713 96 38.0006 96C38.03 96 38.0594 96 38.0888 96C38.1182 96 38.1477 96 38.1772 96C38.2067 96 38.2363 96 38.2659 96C38.2955 96 38.3251 96 38.3548 96C38.3845 96 38.4143 96 38.444 96C38.4738 96 38.5036 96 38.5335 96C38.5633 96 38.5932 96 38.6232 96C38.6531 96 38.6831 96 38.7132 96C38.7432 96 38.7733 96 38.8034 96C38.8335 96 38.8637 96 38.8939 96C38.9241 96 38.9543 96 38.9846 96C39.0149 96 39.0452 96 39.0756 96C39.106 96 39.1364 96 39.1669 96C39.1973 96 39.2278 96 39.2584 96C39.2889 96 39.3195 96 39.3502 96C39.3808 96 39.4115 96 39.4422 96C39.473 96 39.5037 96 39.5345 96C39.5653 96 39.5962 96 39.6271 96C39.658 96 39.6889 96 39.7199 96C39.7509 96 39.782 96 39.813 96C39.8441 96 39.8752 96 39.9064 96C39.9375 96 39.9688 96 40 96V91V86C39.9688 86 39.9375 86 39.9064 86C39.8752 86 39.8441 86 39.813 86C39.782 86 39.7509 86 39.7199 86C39.6889 86 39.658 86 39.6271 86C39.5962 86 39.5653 86 39.5345 86C39.5037 86 39.473 86 39.4422 86C39.4115 86 39.3808 86 39.3502 86C39.3195 86 39.2889 86 39.2584 86C39.2278 86 39.1973 86 39.1669 86C39.1364 86 39.106 86 39.0756 86C39.0452 86 39.0149 86 38.9846 86C38.9543 86 38.9241 86 38.8939 86C38.8637 86 38.8335 86 38.8034 86C38.7733 86 38.7432 86 38.7132 86C38.6831 86 38.6531 86 38.6232 86C38.5932 86 38.5633 86 38.5335 86C38.5036 86 38.4738 86 38.444 86C38.4143 86 38.3845 86 38.3548 86C38.3251 86 38.2955 86 38.2659 86C38.2363 86 38.2067 86 38.1772 86C38.1477 86 38.1182 86 38.0888 86C38.0594 86 38.03 86 38.0006 86C37.9713 86 37.942 86 37.9127 86C37.8835 86 37.8543 86 37.8251 86C37.7959 86 37.7668 86 37.7377 86C37.7086 86 37.6796 86 37.6505 86C37.6215 86 37.5926 86 37.5637 86C37.5347 86 37.5059 86 37.477 86C37.4482 86 37.4194 86 37.3907 86C37.3619 86 37.3332 86 37.3045 86C37.2759 86 37.2473 86 37.2187 86C37.1901 86 37.1616 86 37.1331 86C37.1046 86 37.0761 86 37.0477 86C37.0193 86 36.9909 86 36.9626 86C36.9343 86 36.906 86 36.8777 86C36.8495 86 36.8213 86 36.7931 86C36.765 86 36.7369 86 36.7088 86C36.6807 86 36.6527 86 36.6247 86C36.5967 86 36.5687 86 36.5408 86C36.5129 86 36.4851 86 36.4572 86C36.4294 86 36.4016 86 36.3739 86C36.3461 86 36.3184 86 36.2908 86C36.2631 86 36.2355 86 36.2079 86C36.1804 86 36.1528 86 36.1253 86C36.0979 86 36.0704 86 36.043 86C36.0156 86 35.9882 86 35.9609 86C35.9336 86 35.9063 86 35.8791 86C35.8518 86 35.8246 86 35.7975 86C35.7703 86 35.7432 86 35.7161 86C35.689 86 35.662 86 35.635 86C35.608 86 35.5811 86 35.5541 86C35.5272 86 35.5004 86 35.4735 86C35.4467 86 35.4199 86 35.3932 86C35.3664 86 35.3397 86 35.3131 86C35.2864 86 35.2598 86 35.2332 86C35.2066 86 35.1801 86 35.1536 86C35.1271 86 35.1006 86 35.0742 86C35.0478 86 35.0214 86 34.9951 86C34.9687 86 34.9424 86 34.9162 86C34.8899 86 34.8637 86 34.8375 86C34.8113 86 34.7852 86 34.7591 86C34.733 86 34.707 86 34.681 86C34.655 86 34.629 86 34.6031 86C34.5771 86 34.5512 86 34.5254 86C34.4995 86 34.4737 86 34.448 86C34.4222 86 34.3965 86 34.3708 86C34.3451 86 34.3195 86 34.2938 86C34.2682 86 34.2427 86 34.2172 86C34.1916 86 34.1661 86 34.1407 86C34.1153 86 34.0898 86 34.0645 86C34.0391 86 34.0138 86 33.9885 86C33.9632 86 33.938 86 33.9128 86C33.8876 86 33.8624 86 33.8373 86C33.8122 86 33.7871 86 33.762 86C33.737 86 33.712 86 33.687 86C33.6621 86 33.6372 86 33.6123 86C33.5874 86 33.5625 86 33.5377 86C33.5129 86 33.4882 86 33.4634 86C33.4387 86 33.414 86 33.3894 86C33.3648 86 33.3401 86 33.3156 86C33.291 86 33.2665 86 33.242 86C33.2175 86 33.1931 86 33.1687 86C33.1443 86 33.1199 86 33.0956 86C33.0712 86 33.047 86 33.0227 86C32.9985 86 32.9743 86 32.9501 86C32.9259 86 32.9018 86 32.8777 86C32.8536 86 32.8296 86 32.8055 86C32.7815 86 32.7576 86 32.7336 86C32.7097 86 32.6858 86 32.6619 86C32.6381 86 32.6143 86 32.5905 86C32.5667 86 32.543 86 32.5193 86C32.4956 86 32.4719 86 32.4483 86C32.4247 86 32.4011 86 32.3776 86C32.354 86 32.3305 86 32.3071 86C32.2836 86 32.2602 86 32.2368 86C32.2134 86 32.1901 86 32.1667 86C32.1434 86 32.1202 86 32.0969 86C32.0737 86 32.0505 86 32.0274 86C32.0042 86 31.9811 86 31.958 86C31.935 86 31.9119 86 31.8889 86C31.8659 86 31.843 86 31.82 86C31.7971 86 31.7742 86 31.7514 86C31.7286 86 31.7057 86 31.683 86C31.6602 86 31.6375 86 31.6148 86C31.5921 86 31.5695 86 31.5468 86C31.5242 86 31.5017 86 31.4791 86C31.4566 86 31.4341 86 31.4116 86C31.3892 86 31.3667 86 31.3444 86C31.322 86 31.2996 86 31.2773 86C31.255 86 31.2328 86 31.2105 86C31.1883 86 31.1661 86 31.144 86C31.1218 86 31.0997 86 31.0776 86C31.0555 86 31.0335 86 31.0115 86C30.9895 86 30.9675 86 30.9456 86C30.9237 86 30.9018 86 30.8799 86C30.8581 86 30.8363 86 30.8145 86C30.7927 86 30.771 86 30.7493 86C30.7276 86 30.7059 86 30.6843 86C30.6627 86 30.6411 86 30.6195 86C30.598 86 30.5765 86 30.555 86C30.5335 86 30.5121 86 30.4907 86C30.4693 86 30.448 86 30.4266 86C30.4053 86 30.384 86 30.3628 86C30.3415 86 30.3203 86 30.2992 86C30.278 86 30.2568 86 30.2357 86C30.2146 86 30.1936 86 30.1726 86C30.1515 86 30.1306 86 30.1096 86C30.0887 86 30.0677 86 30.0469 86C30.026 86 30.0052 86 29.9844 86C29.9636 86 29.9428 86 29.9221 86C29.9014 86 29.8807 86 29.86 86C29.8394 86 29.8187 86 29.7982 86C29.7776 86 29.7571 86 29.7365 86C29.716 86 29.6956 86 29.6751 86C29.6547 86 29.6343 86 29.614 86C29.5936 86 29.5733 86 29.553 86C29.5327 86 29.5125 86 29.4923 86C29.4721 86 29.4519 86 29.4318 86C29.4116 86 29.3915 86 29.3715 86C29.3514 86 29.3314 86 29.3114 86C29.2914 86 29.2714 86 29.2515 86C29.2316 86 29.2117 86 29.1919 86C29.172 86 29.1522 86 29.1325 86C29.1127 86 29.093 86 29.0733 86C29.0536 86 29.0339 86 29.0143 86C28.9947 86 28.9751 86 28.9555 86C28.936 86 28.9165 86 28.897 86C28.8775 86 28.8581 86 28.8386 86C28.8192 86 28.7999 86 28.7805 86C28.7612 86 28.7419 86 28.7226 86C28.7034 86 28.6841 86 28.665 86C28.6458 86 28.6266 86 28.6075 86C28.5884 86 28.5693 86 28.5502 86C28.5312 86 28.5122 86 28.4932 86C28.4742 86 28.4553 86 28.4364 86C28.4175 86 28.3986 86 28.3798 86C28.361 86 28.3422 86 28.3234 86C28.3046 86 28.2859 86 28.2672 86C28.2485 86 28.2299 86 28.2113 86C28.1926 86 28.1741 86 28.1555 86C28.137 86 28.1185 86 28.1 86C28.0815 86 28.0631 86 28.0447 86C28.0263 86 28.0079 86 27.9896 86C27.9712 86 27.9529 86 27.9347 86C27.9164 86 27.8982 86 27.88 86C27.8618 86 27.8436 86 27.8255 86C27.8074 86 27.7893 86 27.7712 86C27.7532 86 27.7352 86 27.7172 86C27.6992 86 27.6813 86 27.6633 86C27.6454 86 27.6276 86 27.6097 86C27.5919 86 27.5741 86 27.5563 86C27.5385 86 27.5208 86 27.5031 86C27.4854 86 27.4677 86 27.4501 86C27.4324 86 27.4148 86 27.3973 86C27.3797 86 27.3622 86 27.3447 86C27.3272 86 27.3098 86 27.2923 86C27.2749 86 27.2575 86 27.2402 86C27.2228 86 27.2055 86 27.1882 86C27.1709 86 27.1537 86 27.1365 86C27.1192 86 27.1021 86 27.0849 86C27.0678 86 27.0506 86 27.0336 86C27.0165 86 26.9994 86 26.9824 86C26.9654 86 26.9485 86 26.9315 86C26.9146 86 26.8977 86 26.8808 86C26.8639 86 26.8471 86 26.8303 86C26.8135 86 26.7967 86 26.78 86C26.7632 86 26.7465 86 26.7299 86C26.7132 86 26.6966 86 26.68 86C26.6634 86 26.6468 86 26.6303 86C26.6137 86 26.5973 86 26.5808 86C26.5643 86 26.5479 86 26.5315 86C26.5151 86 26.4987 86 26.4824 86C26.4661 86 26.4498 86 26.4335 86C26.4173 86 26.4011 86 26.3849 86C26.3687 86 26.3525 86 26.3364 86C26.3203 86 26.3042 86 26.2881 86C26.2721 86 26.256 86 26.2401 86C26.2241 86 26.2081 86 26.1922 86C26.1763 86 26.1604 86 26.1445 86C26.1287 86 26.1128 86 26.097 86C26.0813 86 26.0655 86 26.0498 86C26.0341 86 26.0184 86 26.0027 86C25.9871 86 25.9714 86 25.9559 86C25.9403 86 25.9247 86 25.9092 86C25.8937 86 25.8782 86 25.8627 86C25.8473 86 25.8318 86 25.8165 86C25.8011 86 25.7857 86 25.7704 86C25.7551 86 25.7398 86 25.7245 86C25.7093 86 25.694 86 25.6788 86C25.6637 86 25.6485 86 25.6334 86C25.6182 86 25.6032 86 25.5881 86C25.573 86 25.558 86 25.543 86C25.528 86 25.5131 86 25.4981 86C25.4832 86 25.4683 86 25.4534 86C25.4386 86 25.4238 86 25.409 86C25.3942 86 25.3794 86 25.3647 86C25.3499 86 25.3352 86 25.3206 86C25.3059 86 25.2913 86 25.2767 86C25.2621 86 25.2475 86 25.233 86C25.2184 86 25.2039 86 25.1894 86C25.175 86 25.1605 86 25.1461 86C25.1317 86 25.1173 86 25.103 86C25.0887 86 25.0743 86 25.0601 86C25.0458 86 25.0315 86 25.0173 86C25.0031 86 24.9889 86 24.9748 86C24.9606 86 24.9465 86 24.9324 86C24.9184 86 24.9043 86 24.8903 86C24.8763 86 24.8623 86 24.8483 86C24.8344 86 24.8204 86 24.8065 86C24.7926 86 24.7788 86 24.765 86C24.7511 86 24.7373 86 24.7236 86C24.7098 86 24.6961 86 24.6824 86C24.6687 86 24.655 86 24.6414 86C24.6277 86 24.6141 86 24.6005 86C24.587 86 24.5734 86 24.5599 86C24.5464 86 24.5329 86 24.5195 86C24.506 86 24.4926 86 24.4792 86C24.4658 86 24.4525 86 24.4391 86C24.4258 86 24.4125 86 24.3993 86C24.386 86 24.3728 86 24.3596 86C24.3464 86 24.3332 86 24.3201 86C24.307 86 24.2939 86 24.2808 86C24.2677 86 24.2547 86 24.2417 86C24.2287 86 24.2157 86 24.2027 86C24.1898 86 24.1769 86 24.164 86C24.1511 86 24.1382 86 24.1254 86C24.1126 86 24.0998 86 24.087 86C24.0743 86 24.0616 86 24.0489 86C24.0362 86 24.0235 86 24.0109 86C23.9982 86 23.9856 86 23.973 86C23.9605 86 23.9479 86 23.9354 86C23.9229 86 23.9104 86 23.898 86C23.8855 86 23.8731 86 23.8607 86C23.8483 86 23.8359 86 23.8236 86C23.8113 86 23.799 86 23.7867 86C23.7744 86 23.7622 86 23.75 86C23.7378 86 23.7256 86 23.7135 86C23.7013 86 23.6892 86 23.6771 86C23.665 86 23.653 86 23.641 86C23.6289 86 23.6169 86 23.605 86C23.593 86 23.5811 86 23.5692 86C23.5573 86 23.5454 86 23.5336 86C23.5217 86 23.5099 86 23.4981 86C23.4863 86 23.4746 86 23.4629 86C23.4511 86 23.4394 86 23.4278 86C23.4161 86 23.4045 86 23.3929 86C23.3813 86 23.3697 86 23.3582 86C23.3466 86 23.3351 86 23.3236 86C23.3122 86 23.3007 86 23.2893 86C23.2779 86 23.2665 86 23.2551 86C23.2437 86 23.2324 86 23.2211 86C23.2098 86 23.1985 86 23.1873 86C23.176 86 23.1648 86 23.1536 86C23.1425 86 23.1313 86 23.1202 86C23.1091 86 23.098 86 23.0869 86C23.0758 86 23.0648 86 23.0538 86C23.0428 86 23.0318 86 23.0208 86C23.0099 86 22.999 86 22.9881 86C22.9772 86 22.9663 86 22.9555 86C22.9447 86 22.9339 86 22.9231 86C22.9123 86 22.9016 86 22.8909 86C22.8802 86 22.8695 86 22.8588 86C22.8482 86 22.8375 86 22.8269 86C22.8163 86 22.8058 86 22.7952 86C22.7847 86 22.7742 86 22.7637 86C22.7532 86 22.7428 86 22.7324 86C22.7219 86 22.7115 86 22.7012 86C22.6908 86 22.6805 86 22.6702 86C22.6599 86 22.6496 86 22.6393 86C22.6291 86 22.6189 86 22.6087 86C22.5985 86 22.5883 86 22.5782 86C22.568 86 22.5579 86 22.5479 86C22.5378 86 22.5277 86 22.5177 86C22.5077 86 22.4977 86 22.4877 86C22.4778 86 22.4678 86 22.4579 86C22.448 86 22.4382 86 22.4283 86C22.4185 86 22.4086 86 22.3988 86C22.389 86 22.3793 86 22.3695 86C22.3598 86 22.3501 86 22.3404 86C22.3307 86 22.3211 86 22.3115 86C22.3019 86 22.2923 86 22.2827 86C22.2731 86 22.2636 86 22.2541 86C22.2446 86 22.2351 86 22.2256 86C22.2162 86 22.2068 86 22.1974 86C22.188 86 22.1786 86 22.1692 86C22.1599 86 22.1506 86 22.1413 86C22.132 86 22.1228 86 22.1135 86C22.1043 86 22.0951 86 22.0859 86C22.0768 86 22.0676 86 22.0585 86C22.0494 86 22.0403 86 22.0312 86C22.0222 86 22.0131 86 22.0041 86C21.9951 86 21.9861 86 21.9772 86C21.9682 86 21.9593 86 21.9504 86C21.9415 86 21.9326 86 21.9238 86C21.9149 86 21.9061 86 21.8973 86C21.8886 86 21.8798 86 21.8711 86C21.8623 86 21.8536 86 21.8449 86C21.8363 86 21.8276 86 21.819 86C21.8104 86 21.8018 86 21.7932 86C21.7846 86 21.7761 86 21.7676 86C21.7591 86 21.7506 86 21.7421 86C21.7337 86 21.7252 86 21.7168 86C21.7084 86 21.7 86 21.6917 86C21.6833 86 21.675 86 21.6667 86C21.6584 86 21.6501 86 21.6419 86C21.6337 86 21.6254 86 21.6172 86C21.6091 86 21.6009 86 21.5928 86C21.5846 86 21.5765 86 21.5684 86C21.5603 86 21.5523 86 21.5443 86C21.5362 86 21.5282 86 21.5202 86C21.5123 86 21.5043 86 21.4964 86C21.4885 86 21.4806 86 21.4727 86C21.4648 86 21.457 86 21.4492 86C21.4414 86 21.4336 86 21.4258 86C21.418 86 21.4103 86 21.4026 86C21.3949 86 21.3872 86 21.3795 86C21.3719 86 21.3643 86 21.3567 86C21.349 86 21.3415 86 21.3339 86C21.3264 86 21.3188 86 21.3113 86C21.3038 86 21.2964 86 21.2889 86C21.2815 86 21.274 86 21.2666 86C21.2593 86 21.2519 86 21.2445 86C21.2372 86 21.2299 86 21.2226 86C21.2153 86 21.208 86 21.2008 86C21.1935 86 21.1863 86 21.1791 86C21.172 86 21.1648 86 21.1577 86C21.1505 86 21.1434 86 21.1363 86C21.1292 86 21.1222 86 21.1151 86C21.1081 86 21.1011 86 21.0941 86C21.0871 86 21.0802 86 21.0733 86C21.0663 86 21.0594 86 21.0525 86C21.0457 86 21.0388 86 21.032 86C21.0252 86 21.0184 86 21.0116 86C21.0048 86 20.998 86 20.9913 86C20.9846 86 20.9779 86 20.9712 86C20.9645 86 20.9579 86 20.9513 86C20.9446 86 20.938 86 20.9315 86C20.9249 86 20.9183 86 20.9118 86C20.9053 86 20.8988 86 20.8923 86C20.8858 86 20.8794 86 20.873 86C20.8666 86 20.8602 86 20.8538 86C20.8474 86 20.8411 86 20.8347 86C20.8284 86 20.8221 86 20.8158 86C20.8096 86 20.8033 86 20.7971 86C20.7909 86 20.7847 86 20.7785 86C20.7723 86 20.7662 86 20.7601 86C20.7539 86 20.7478 86 20.7418 86C20.7357 86 20.7296 86 20.7236 86C20.7176 86 20.7116 86 20.7056 86C20.6996 86 20.6937 86 20.6877 86C20.6818 86 20.6759 86 20.67 86C20.6642 86 20.6583 86 20.6525 86C20.6467 86 20.6408 86 20.6351 86C20.6293 86 20.6235 86 20.6178 86C20.6121 86 20.6064 86 20.6007 86C20.595 86 20.5893 86 20.5837 86C20.5781 86 20.5725 86 20.5669 86C20.5613 86 20.5557 86 20.5502 86C20.5447 86 20.5391 86 20.5337 86C20.5282 86 20.5227 86 20.5173 86C20.5118 86 20.5064 86 20.501 86C20.4956 86 20.4903 86 20.4849 86C20.4796 86 20.4742 86 20.4689 86C20.4636 86 20.4584 86 20.4531 86C20.4479 86 20.4427 86 20.4374 86C20.4322 86 20.4271 86 20.4219 86C20.4168 86 20.4116 86 20.4065 86C20.4014 86 20.3963 86 20.3913 86C20.3862 86 20.3812 86 20.3762 86C20.3712 86 20.3662 86 20.3612 86C20.3562 86 20.3513 86 20.3464 86C20.3415 86 20.3366 86 20.3317 86C20.3268 86 20.322 86 20.3172 86C20.3123 86 20.3075 86 20.3028 86C20.298 86 20.2932 86 20.2885 86C20.2838 86 20.2791 86 20.2744 86C20.2697 86 20.265 86 20.2604 86C20.2557 86 20.2511 86 20.2465 86C20.242 86 20.2374 86 20.2328 86C20.2283 86 20.2238 86 20.2193 86C20.2148 86 20.2103 86 20.2058 86C20.2014 86 20.197 86 20.1925 86C20.1881 86 20.1838 86 20.1794 86C20.175 86 20.1707 86 20.1664 86C20.1621 86 20.1578 86 20.1535 86C20.1492 86 20.145 86 20.1408 86C20.1365 86 20.1323 86 20.1281 86C20.124 86 20.1198 86 20.1157 86C20.1115 86 20.1074 86 20.1033 86C20.0992 86 20.0952 86 20.0911 86C20.0871 86 20.0831 86 20.0791 86C20.0751 86 20.0711 86 20.0671 86C20.0632 86 20.0593 86 20.0553 86C20.0514 86 20.0475 86 20.0437 86C20.0398 86 20.036 86 20.0321 86C20.0283 86 20.0245 86 20.0208 86C20.017 86 20.0132 86 20.0095 86C20.0058 86 20.002 86 19.9984 86C19.9947 86 19.991 86 19.9874 86C19.9837 86 19.9801 86 19.9765 86C19.9729 86 19.9693 86 19.9658 86C19.9622 86 19.9587 86 19.9552 86C19.9516 86 19.9482 86 19.9447 86C19.9412 86 19.9378 86 19.9343 86C19.9309 86 19.9275 86 19.9241 86C19.9208 86 19.9174 86 19.9141 86C19.9107 86 19.9074 86 19.9041 86C19.9008 86 19.8975 86 19.8943 86C19.891 86 19.8878 86 19.8846 86C19.8814 86 19.8782 86 19.875 86C19.8719 86 19.8687 86 19.8656 86C19.8625 86 19.8594 86 19.8563 86C19.8532 86 19.8502 86 19.8471 86C19.8441 86 19.8411 86 19.8381 86C19.8351 86 19.8321 86 19.8291 86C19.8262 86 19.8233 86 19.8203 86C19.8174 86 19.8145 86 19.8117 86C19.8088 86 19.806 86 19.8031 86C19.8003 86 19.7975 86 19.7947 86C19.7919 86 19.7892 86 19.7864 86C19.7837 86 19.781 86 19.7783 86C19.7756 86 19.7729 86 19.7702 86C19.7676 86 19.7649 86 19.7623 86C19.7597 86 19.7571 86 19.7545 86C19.752 86 19.7494 86 19.7469 86C19.7443 86 19.7418 86 19.7393 86C19.7368 86 19.7344 86 19.7319 86C19.7295 86 19.727 86 19.7246 86C19.7222 86 19.7198 86 19.7174 86C19.7151 86 19.7127 86 19.7104 86C19.7081 86 19.7058 86 19.7035 86C19.7012 86 19.6989 86 19.6967 86C19.6944 86 19.6922 86 19.69 86C19.6878 86 19.6856 86 19.6834 86C19.6812 86 19.6791 86 19.677 86C19.6749 86 19.6727 86 19.6707 86C19.6686 86 19.6665 86 19.6645 86C19.6624 86 19.6604 86 19.6584 86C19.6564 86 19.6544 86 19.6524 86C19.6505 86 19.6485 86 19.6466 86C19.6447 86 19.6428 86 19.6409 86C19.639 86 19.6371 86 19.6353 86C19.6334 86 19.6316 86 19.6298 86C19.628 86 19.6262 86 19.6244 86C19.6227 86 19.6209 86 19.6192 86C19.6174 86 19.6157 86 19.614 86C19.6124 86 19.6107 86 19.609 86C19.6074 86 19.6058 86 19.6041 86C19.6025 86 19.6009 86 19.5994 86C19.5978 86 19.5962 86 19.5947 86C19.5932 86 19.5917 86 19.5902 86C19.5887 86 19.5872 86 19.5857 86C19.5843 86 19.5828 86 19.5814 86C19.58 86 19.5786 86 19.5772 86C19.5758 86 19.5745 86 19.5731 86C19.5718 86 19.5705 86 19.5692 86C19.5679 86 19.5666 86 19.5653 86C19.5641 86 19.5628 86 19.5616 86C19.5604 86 19.5591 86 19.558 86C19.5568 86 19.5556 86 19.5544 86C19.5533 86 19.5522 86 19.551 86C19.5499 86 19.5488 86 19.5478 86C19.5467 86 19.5456 86 19.5446 86C19.5435 86 19.5425 86 19.5415 86C19.5405 86 19.5395 86 19.5386 86C19.5376 86 19.5367 86 19.5357 86C19.5348 86 19.5339 86 19.533 86C19.5321 86 19.5312 86 19.5304 86C19.5295 86 19.5287 86 19.5279 86C19.5271 86 19.5263 86 19.5255 86C19.5247 86 19.5239 86 19.5232 86C19.5224 86 19.5217 86 19.521 86C19.5203 86 19.5196 86 19.5189 86C19.5183 86 19.5176 86 19.517 86C19.5164 86 19.5157 86 19.5151 86C19.5145 86 19.514 86 19.5134 86C19.5128 86 19.5123 86 19.5118 86C19.5112 86 19.5107 86 19.5102 86C19.5097 86 19.5093 86 19.5088 86C19.5084 86 19.5079 86 19.5075 86C19.5071 86 19.5067 86 19.5063 86C19.5059 86 19.5056 86 19.5052 86C19.5049 86 19.5045 86 19.5042 86C19.5039 86 19.5036 86 19.5033 86C19.503 86 19.5028 86 19.5025 86C19.5023 86 19.5021 86 19.5019 86C19.5017 86 19.5015 86 19.5013 86C19.5011 86 19.501 86 19.5008 86C19.5007 86 19.5006 86 19.5005 86C19.5004 86 19.5003 86 19.5002 86C19.5001 86 19.5001 86 19.5001 86C19.5 86 19.5 86 19.5 91ZM40 91V96C46.8332 96 51.6462 90.5138 54.9129 85.5428C58.4114 80.219 61.5442 73.259 64.4387 66.7928C67.4322 60.1052 70.1802 53.9246 73.0553 49.3736C74.484 47.112 75.7755 45.5336 76.9158 44.5624C78.0259 43.6169 78.6837 43.5 79 43.5V38.5V33.5C75.5663 33.5 72.6929 35.0237 70.4319 36.9493C68.2011 38.8492 66.2816 41.3724 64.601 44.0327C61.2573 49.3254 58.1928 56.2698 55.3113 62.7072C52.3308 69.366 49.5261 75.531 46.5558 80.051C43.3538 84.9237 41.1668 86 40 86V91ZM79 38.5V43.5C79.0293 43.5 79.0586 43.5 79.0878 43.5C79.1171 43.5 79.1463 43.5 79.1756 43.5C79.2048 43.5 79.234 43.5 79.2632 43.5C79.2923 43.5 79.3215 43.5 79.3506 43.5C79.3798 43.5 79.4089 43.5 79.438 43.5C79.4671 43.5 79.4962 43.5 79.5253 43.5C79.5543 43.5 79.5834 43.5 79.6124 43.5C79.6414 43.5 79.6705 43.5 79.6994 43.5C79.7284 43.5 79.7574 43.5 79.7864 43.5C79.8153 43.5 79.8442 43.5 79.8731 43.5C79.9021 43.5 79.931 43.5 79.9598 43.5C79.9887 43.5 80.0175 43.5 80.0464 43.5C80.0752 43.5 80.104 43.5 80.1328 43.5C80.1616 43.5 80.1904 43.5 80.2192 43.5C80.2479 43.5 80.2766 43.5 80.3054 43.5C80.3341 43.5 80.3628 43.5 80.3914 43.5C80.4201 43.5 80.4488 43.5 80.4774 43.5C80.5061 43.5 80.5347 43.5 80.5633 43.5C80.5919 43.5 80.6205 43.5 80.649 43.5C80.6776 43.5 80.7061 43.5 80.7346 43.5C80.7631 43.5 80.7916 43.5 80.8201 43.5C80.8486 43.5 80.8771 43.5 80.9055 43.5C80.9339 43.5 80.9624 43.5 80.9908 43.5C81.0192 43.5 81.0475 43.5 81.0759 43.5C81.1043 43.5 81.1326 43.5 81.1609 43.5C81.1892 43.5 81.2175 43.5 81.2458 43.5C81.2741 43.5 81.3024 43.5 81.3306 43.5C81.3588 43.5 81.3871 43.5 81.4153 43.5C81.4435 43.5 81.4716 43.5 81.4998 43.5C81.528 43.5 81.5561 43.5 81.5842 43.5C81.6123 43.5 81.6404 43.5 81.6685 43.5C81.6966 43.5 81.7246 43.5 81.7527 43.5C81.7807 43.5 81.8087 43.5 81.8367 43.5C81.8647 43.5 81.8927 43.5 81.9207 43.5C81.9486 43.5 81.9766 43.5 82.0045 43.5C82.0324 43.5 82.0603 43.5 82.0882 43.5C82.116 43.5 82.1439 43.5 82.1717 43.5C82.1996 43.5 82.2274 43.5 82.2552 43.5C82.283 43.5 82.3107 43.5 82.3385 43.5C82.3662 43.5 82.394 43.5 82.4217 43.5C82.4494 43.5 82.4771 43.5 82.5048 43.5C82.5324 43.5 82.5601 43.5 82.5877 43.5C82.6153 43.5 82.6429 43.5 82.6705 43.5C82.6981 43.5 82.7257 43.5 82.7532 43.5C82.7808 43.5 82.8083 43.5 82.8358 43.5C82.8633 43.5 82.8908 43.5 82.9183 43.5C82.9457 43.5 82.9732 43.5 83.0006 43.5C83.028 43.5 83.0554 43.5 83.0828 43.5C83.1102 43.5 83.1375 43.5 83.1649 43.5C83.1922 43.5 83.2195 43.5 83.2468 43.5C83.2741 43.5 83.3014 43.5 83.3286 43.5C83.3559 43.5 83.3831 43.5 83.4104 43.5C83.4376 43.5 83.4648 43.5 83.4919 43.5C83.5191 43.5 83.5462 43.5 83.5734 43.5C83.6005 43.5 83.6276 43.5 83.6547 43.5C83.6818 43.5 83.7088 43.5 83.7359 43.5C83.7629 43.5 83.79 43.5 83.817 43.5C83.844 43.5 83.8709 43.5 83.8979 43.5C83.9249 43.5 83.9518 43.5 83.9787 43.5C84.0056 43.5 84.0325 43.5 84.0594 43.5C84.0863 43.5 84.1131 43.5 84.14 43.5C84.1668 43.5 84.1936 43.5 84.2204 43.5C84.2472 43.5 84.2739 43.5 84.3007 43.5C84.3274 43.5 84.3542 43.5 84.3809 43.5C84.4076 43.5 84.4342 43.5 84.4609 43.5C84.4876 43.5 84.5142 43.5 84.5408 43.5C84.5674 43.5 84.594 43.5 84.6206 43.5C84.6472 43.5 84.6737 43.5 84.7003 43.5C84.7268 43.5 84.7533 43.5 84.7798 43.5C84.8063 43.5 84.8327 43.5 84.8592 43.5C84.8856 43.5 84.9121 43.5 84.9385 43.5C84.9649 43.5 84.9912 43.5 85.0176 43.5C85.0439 43.5 85.0703 43.5 85.0966 43.5C85.1229 43.5 85.1492 43.5 85.1755 43.5C85.2017 43.5 85.228 43.5 85.2542 43.5C85.2804 43.5 85.3066 43.5 85.3328 43.5C85.359 43.5 85.3852 43.5 85.4113 43.5C85.4374 43.5 85.4636 43.5 85.4897 43.5C85.5158 43.5 85.5418 43.5 85.5679 43.5C85.5939 43.5 85.62 43.5 85.646 43.5C85.672 43.5 85.698 43.5 85.7239 43.5C85.7499 43.5 85.7758 43.5 85.8017 43.5C85.8277 43.5 85.8536 43.5 85.8794 43.5C85.9053 43.5 85.9312 43.5 85.957 43.5C85.9828 43.5 86.0086 43.5 86.0344 43.5C86.0602 43.5 86.086 43.5 86.1117 43.5C86.1374 43.5 86.1632 43.5 86.1889 43.5C86.2145 43.5 86.2402 43.5 86.2659 43.5C86.2915 43.5 86.3172 43.5 86.3428 43.5C86.3684 43.5 86.394 43.5 86.4195 43.5C86.4451 43.5 86.4706 43.5 86.4961 43.5C86.5216 43.5 86.5471 43.5 86.5726 43.5C86.5981 43.5 86.6235 43.5 86.649 43.5C86.6744 43.5 86.6998 43.5 86.7252 43.5C86.7506 43.5 86.7759 43.5 86.8013 43.5C86.8266 43.5 86.8519 43.5 86.8772 43.5C86.9025 43.5 86.9278 43.5 86.953 43.5C86.9782 43.5 87.0035 43.5 87.0287 43.5C87.0539 43.5 87.0791 43.5 87.1042 43.5C87.1294 43.5 87.1545 43.5 87.1796 43.5C87.2047 43.5 87.2298 43.5 87.2549 43.5C87.2799 43.5 87.305 43.5 87.33 43.5C87.355 43.5 87.38 43.5 87.405 43.5C87.4299 43.5 87.4549 43.5 87.4798 43.5C87.5048 43.5 87.5297 43.5 87.5545 43.5C87.5794 43.5 87.6043 43.5 87.6291 43.5C87.6539 43.5 87.6788 43.5 87.7035 43.5C87.7283 43.5 87.7531 43.5 87.7778 43.5C87.8026 43.5 87.8273 43.5 87.852 43.5C87.8767 43.5 87.9014 43.5 87.926 43.5C87.9507 43.5 87.9753 43.5 87.9999 43.5C88.0245 43.5 88.0491 43.5 88.0736 43.5C88.0982 43.5 88.1227 43.5 88.1472 43.5C88.1718 43.5 88.1962 43.5 88.2207 43.5C88.2452 43.5 88.2696 43.5 88.294 43.5C88.3184 43.5 88.3428 43.5 88.3672 43.5C88.3916 43.5 88.4159 43.5 88.4402 43.5C88.4646 43.5 88.4889 43.5 88.5131 43.5C88.5374 43.5 88.5617 43.5 88.5859 43.5C88.6101 43.5 88.6343 43.5 88.6585 43.5C88.6827 43.5 88.7069 43.5 88.731 43.5C88.7551 43.5 88.7793 43.5 88.8033 43.5C88.8274 43.5 88.8515 43.5 88.8755 43.5C88.8996 43.5 88.9236 43.5 88.9476 43.5C88.9716 43.5 88.9956 43.5 89.0195 43.5C89.0434 43.5 89.0674 43.5 89.0913 43.5C89.1152 43.5 89.139 43.5 89.1629 43.5C89.1867 43.5 89.2106 43.5 89.2344 43.5C89.2582 43.5 89.282 43.5 89.3057 43.5C89.3295 43.5 89.3532 43.5 89.3769 43.5C89.4006 43.5 89.4243 43.5 89.448 43.5C89.4716 43.5 89.4953 43.5 89.5189 43.5C89.5425 43.5 89.5661 43.5 89.5896 43.5C89.6132 43.5 89.6367 43.5 89.6603 43.5C89.6838 43.5 89.7073 43.5 89.7307 43.5C89.7542 43.5 89.7776 43.5 89.8011 43.5C89.8245 43.5 89.8479 43.5 89.8713 43.5C89.8946 43.5 89.918 43.5 89.9413 43.5C89.9646 43.5 89.9879 43.5 90.0112 43.5C90.0345 43.5 90.0577 43.5 90.0809 43.5C90.1042 43.5 90.1274 43.5 90.1506 43.5C90.1737 43.5 90.1969 43.5 90.22 43.5C90.2431 43.5 90.2662 43.5 90.2893 43.5C90.3124 43.5 90.3355 43.5 90.3585 43.5C90.3815 43.5 90.4045 43.5 90.4275 43.5C90.4505 43.5 90.4735 43.5 90.4964 43.5C90.5193 43.5 90.5422 43.5 90.5651 43.5C90.588 43.5 90.6109 43.5 90.6337 43.5C90.6565 43.5 90.6793 43.5 90.7021 43.5C90.7249 43.5 90.7477 43.5 90.7704 43.5C90.7931 43.5 90.8159 43.5 90.8385 43.5C90.8612 43.5 90.8839 43.5 90.9065 43.5C90.9292 43.5 90.9518 43.5 90.9744 43.5C90.997 43.5 91.0195 43.5 91.0421 43.5C91.0646 43.5 91.0871 43.5 91.1096 43.5C91.1321 43.5 91.1546 43.5 91.177 43.5C91.1994 43.5 91.2218 43.5 91.2442 43.5C91.2666 43.5 91.289 43.5 91.3113 43.5C91.3337 43.5 91.356 43.5 91.3783 43.5C91.4006 43.5 91.4228 43.5 91.4451 43.5C91.4673 43.5 91.4895 43.5 91.5117 43.5C91.5339 43.5 91.5561 43.5 91.5782 43.5C91.6003 43.5 91.6225 43.5 91.6445 43.5C91.6666 43.5 91.6887 43.5 91.7107 43.5C91.7328 43.5 91.7548 43.5 91.7768 43.5C91.7988 43.5 91.8207 43.5 91.8427 43.5C91.8646 43.5 91.8865 43.5 91.9084 43.5C91.9303 43.5 91.9522 43.5 91.974 43.5C91.9958 43.5 92.0176 43.5 92.0394 43.5C92.0612 43.5 92.083 43.5 92.1047 43.5C92.1264 43.5 92.1482 43.5 92.1698 43.5C92.1915 43.5 92.2132 43.5 92.2348 43.5C92.2565 43.5 92.2781 43.5 92.2996 43.5C92.3212 43.5 92.3428 43.5 92.3643 43.5C92.3858 43.5 92.4074 43.5 92.4288 43.5C92.4503 43.5 92.4718 43.5 92.4932 43.5C92.5146 43.5 92.536 43.5 92.5574 43.5C92.5788 43.5 92.6001 43.5 92.6215 43.5C92.6428 43.5 92.6641 43.5 92.6854 43.5C92.7066 43.5 92.7279 43.5 92.7491 43.5C92.7703 43.5 92.7915 43.5 92.8127 43.5C92.8339 43.5 92.855 43.5 92.8761 43.5C92.8973 43.5 92.9184 43.5 92.9394 43.5C92.9605 43.5 92.9815 43.5 93.0026 43.5C93.0236 43.5 93.0446 43.5 93.0655 43.5C93.0865 43.5 93.1074 43.5 93.1283 43.5C93.1493 43.5 93.1701 43.5 93.191 43.5C93.2119 43.5 93.2327 43.5 93.2535 43.5C93.2743 43.5 93.2951 43.5 93.3159 43.5C93.3366 43.5 93.3573 43.5 93.378 43.5C93.3987 43.5 93.4194 43.5 93.4401 43.5C93.4607 43.5 93.4814 43.5 93.502 43.5C93.5226 43.5 93.5431 43.5 93.5637 43.5C93.5842 43.5 93.6047 43.5 93.6252 43.5C93.6457 43.5 93.6662 43.5 93.6866 43.5C93.7071 43.5 93.7275 43.5 93.7479 43.5C93.7683 43.5 93.7886 43.5 93.809 43.5C93.8293 43.5 93.8496 43.5 93.8699 43.5C93.8902 43.5 93.9104 43.5 93.9307 43.5C93.9509 43.5 93.9711 43.5 93.9913 43.5C94.0115 43.5 94.0316 43.5 94.0517 43.5C94.0719 43.5 94.092 43.5 94.112 43.5C94.1321 43.5 94.1521 43.5 94.1722 43.5C94.1922 43.5 94.2122 43.5 94.2321 43.5C94.2521 43.5 94.272 43.5 94.2919 43.5C94.3119 43.5 94.3317 43.5 94.3516 43.5C94.3715 43.5 94.3913 43.5 94.4111 43.5C94.4309 43.5 94.4507 43.5 94.4704 43.5C94.4902 43.5 94.5099 43.5 94.5296 43.5C94.5493 43.5 94.569 43.5 94.5886 43.5C94.6083 43.5 94.6279 43.5 94.6475 43.5C94.667 43.5 94.6866 43.5 94.7061 43.5C94.7257 43.5 94.7452 43.5 94.7647 43.5C94.7842 43.5 94.8036 43.5 94.823 43.5C94.8425 43.5 94.8619 43.5 94.8812 43.5C94.9006 43.5 94.92 43.5 94.9393 43.5C94.9586 43.5 94.9779 43.5 94.9971 43.5C95.0164 43.5 95.0357 43.5 95.0549 43.5C95.0741 43.5 95.0933 43.5 95.1124 43.5C95.1316 43.5 95.1507 43.5 95.1698 43.5C95.1889 43.5 95.208 43.5 95.227 43.5C95.2461 43.5 95.2651 43.5 95.2841 43.5C95.3031 43.5 95.322 43.5 95.341 43.5C95.3599 43.5 95.3788 43.5 95.3977 43.5C95.4166 43.5 95.4354 43.5 95.4543 43.5C95.4731 43.5 95.4919 43.5 95.5107 43.5C95.5294 43.5 95.5482 43.5 95.5669 43.5C95.5856 43.5 95.6043 43.5 95.623 43.5C95.6416 43.5 95.6603 43.5 95.6789 43.5C95.6975 43.5 95.7161 43.5 95.7346 43.5C95.7532 43.5 95.7717 43.5 95.7902 43.5C95.8087 43.5 95.8272 43.5 95.8456 43.5C95.864 43.5 95.8825 43.5 95.9008 43.5C95.9192 43.5 95.9376 43.5 95.9559 43.5C95.9743 43.5 95.9926 43.5 96.0108 43.5C96.0291 43.5 96.0474 43.5 96.0656 43.5C96.0838 43.5 96.102 43.5 96.1201 43.5C96.1383 43.5 96.1564 43.5 96.1746 43.5C96.1927 43.5 96.2107 43.5 96.2288 43.5C96.2468 43.5 96.2649 43.5 96.2829 43.5C96.3009 43.5 96.3188 43.5 96.3368 43.5C96.3547 43.5 96.3726 43.5 96.3905 43.5C96.4084 43.5 96.4262 43.5 96.4441 43.5C96.4619 43.5 96.4797 43.5 96.4975 43.5C96.5152 43.5 96.533 43.5 96.5507 43.5C96.5684 43.5 96.5861 43.5 96.6038 43.5C96.6214 43.5 96.639 43.5 96.6566 43.5C96.6743 43.5 96.6918 43.5 96.7094 43.5C96.7269 43.5 96.7444 43.5 96.7619 43.5C96.7794 43.5 96.7969 43.5 96.8143 43.5C96.8317 43.5 96.8491 43.5 96.8665 43.5C96.8839 43.5 96.9012 43.5 96.9186 43.5C96.9359 43.5 96.9532 43.5 96.9704 43.5C96.9877 43.5 97.0049 43.5 97.0221 43.5C97.0393 43.5 97.0565 43.5 97.0736 43.5C97.0908 43.5 97.1079 43.5 97.125 43.5C97.1421 43.5 97.1592 43.5 97.1762 43.5C97.1932 43.5 97.2102 43.5 97.2272 43.5C97.2442 43.5 97.2611 43.5 97.278 43.5C97.295 43.5 97.3118 43.5 97.3287 43.5C97.3456 43.5 97.3624 43.5 97.3792 43.5C97.396 43.5 97.4128 43.5 97.4295 43.5C97.4463 43.5 97.463 43.5 97.4797 43.5C97.4964 43.5 97.513 43.5 97.5296 43.5C97.5463 43.5 97.5629 43.5 97.5794 43.5C97.596 43.5 97.6126 43.5 97.6291 43.5C97.6456 43.5 97.6621 43.5 97.6785 43.5C97.695 43.5 97.7114 43.5 97.7278 43.5C97.7442 43.5 97.7606 43.5 97.7769 43.5C97.7933 43.5 97.8096 43.5 97.8258 43.5C97.8421 43.5 97.8584 43.5 97.8746 43.5C97.8908 43.5 97.907 43.5 97.9232 43.5C97.9394 43.5 97.9555 43.5 97.9716 43.5C97.9877 43.5 98.0038 43.5 98.0198 43.5C98.0359 43.5 98.0519 43.5 98.0679 43.5C98.0839 43.5 98.0998 43.5 98.1158 43.5C98.1317 43.5 98.1476 43.5 98.1635 43.5C98.1793 43.5 98.1952 43.5 98.211 43.5C98.2268 43.5 98.2426 43.5 98.2583 43.5C98.2741 43.5 98.2898 43.5 98.3055 43.5C98.3212 43.5 98.3369 43.5 98.3525 43.5C98.3681 43.5 98.3838 43.5 98.3993 43.5C98.4149 43.5 98.4305 43.5 98.446 43.5C98.4615 43.5 98.477 43.5 98.4924 43.5C98.5079 43.5 98.5233 43.5 98.5387 43.5C98.5541 43.5 98.5695 43.5 98.5848 43.5C98.6002 43.5 98.6155 43.5 98.6308 43.5C98.646 43.5 98.6613 43.5 98.6765 43.5C98.6917 43.5 98.7069 43.5 98.7221 43.5C98.7372 43.5 98.7524 43.5 98.7675 43.5C98.7826 43.5 98.7977 43.5 98.8127 43.5C98.8277 43.5 98.8427 43.5 98.8577 43.5C98.8727 43.5 98.8877 43.5 98.9026 43.5C98.9175 43.5 98.9324 43.5 98.9473 43.5C98.9621 43.5 98.977 43.5 98.9918 43.5C99.0066 43.5 99.0213 43.5 99.0361 43.5C99.0508 43.5 99.0655 43.5 99.0802 43.5C99.0949 43.5 99.1095 43.5 99.1242 43.5C99.1388 43.5 99.1534 43.5 99.1679 43.5C99.1825 43.5 99.197 43.5 99.2115 43.5C99.226 43.5 99.2405 43.5 99.2549 43.5C99.2694 43.5 99.2838 43.5 99.2982 43.5C99.3125 43.5 99.3269 43.5 99.3412 43.5C99.3555 43.5 99.3698 43.5 99.3841 43.5C99.3983 43.5 99.4125 43.5 99.4267 43.5C99.4409 43.5 99.4551 43.5 99.4692 43.5C99.4834 43.5 99.4975 43.5 99.5116 43.5C99.5256 43.5 99.5397 43.5 99.5537 43.5C99.5677 43.5 99.5817 43.5 99.5956 43.5C99.6096 43.5 99.6235 43.5 99.6374 43.5C99.6513 43.5 99.6652 43.5 99.679 43.5C99.6928 43.5 99.7066 43.5 99.7204 43.5C99.7342 43.5 99.7479 43.5 99.7616 43.5C99.7753 43.5 99.789 43.5 99.8026 43.5C99.8163 43.5 99.8299 43.5 99.8435 43.5C99.8571 43.5 99.8706 43.5 99.8841 43.5C99.8977 43.5 99.9111 43.5 99.9246 43.5C99.9381 43.5 99.9515 43.5 99.9649 43.5C99.9783 43.5 99.9917 43.5 100.005 43.5C100.018 43.5 100.032 43.5 100.045 43.5C100.058 43.5 100.071 43.5 100.085 43.5C100.098 43.5 100.111 43.5 100.124 43.5C100.137 43.5 100.15 43.5 100.164 43.5C100.177 43.5 100.19 43.5 100.203 43.5C100.216 43.5 100.229 43.5 100.242 43.5C100.255 43.5 100.268 43.5 100.281 43.5C100.293 43.5 100.306 43.5 100.319 43.5C100.332 43.5 100.345 43.5 100.358 43.5C100.37 43.5 100.383 43.5 100.396 43.5C100.409 43.5 100.421 43.5 100.434 43.5C100.446 43.5 100.459 43.5 100.472 43.5C100.484 43.5 100.497 43.5 100.509 43.5C100.522 43.5 100.534 43.5 100.547 43.5C100.559 43.5 100.572 43.5 100.584 43.5C100.597 43.5 100.609 43.5 100.621 43.5C100.634 43.5 100.646 43.5 100.658 43.5C100.67 43.5 100.683 43.5 100.695 43.5C100.707 43.5 100.719 43.5 100.731 43.5C100.744 43.5 100.756 43.5 100.768 43.5C100.78 43.5 100.792 43.5 100.804 43.5C100.816 43.5 100.828 43.5 100.84 43.5C100.852 43.5 100.864 43.5 100.876 43.5C100.888 43.5 100.899 43.5 100.911 43.5C100.923 43.5 100.935 43.5 100.947 43.5C100.958 43.5 100.97 43.5 100.982 43.5C100.994 43.5 101.005 43.5 101.017 43.5C101.029 43.5 101.04 43.5 101.052 43.5C101.063 43.5 101.075 43.5 101.086 43.5C101.098 43.5 101.109 43.5 101.121 43.5C101.132 43.5 101.144 43.5 101.155 43.5C101.166 43.5 101.178 43.5 101.189 43.5C101.2 43.5 101.212 43.5 101.223 43.5C101.234 43.5 101.245 43.5 101.257 43.5C101.268 43.5 101.279 43.5 101.29 43.5C101.301 43.5 101.312 43.5 101.323 43.5C101.334 43.5 101.345 43.5 101.356 43.5C101.367 43.5 101.378 43.5 101.389 43.5C101.4 43.5 101.411 43.5 101.422 43.5C101.433 43.5 101.444 43.5 101.454 43.5C101.465 43.5 101.476 43.5 101.487 43.5C101.498 43.5 101.508 43.5 101.519 43.5C101.53 43.5 101.54 43.5 101.551 43.5C101.561 43.5 101.572 43.5 101.583 43.5C101.593 43.5 101.604 43.5 101.614 43.5C101.625 43.5 101.635 43.5 101.645 43.5C101.656 43.5 101.666 43.5 101.677 43.5C101.687 43.5 101.697 43.5 101.707 43.5C101.718 43.5 101.728 43.5 101.738 43.5C101.748 43.5 101.759 43.5 101.769 43.5C101.779 43.5 101.789 43.5 101.799 43.5C101.809 43.5 101.819 43.5 101.829 43.5C101.839 43.5 101.849 43.5 101.859 43.5C101.869 43.5 101.879 43.5 101.889 43.5C101.899 43.5 101.909 43.5 101.918 43.5C101.928 43.5 101.938 43.5 101.948 43.5C101.958 43.5 101.967 43.5 101.977 43.5C101.987 43.5 101.996 43.5 102.006 43.5C102.016 43.5 102.025 43.5 102.035 43.5C102.044 43.5 102.054 43.5 102.063 43.5C102.073 43.5 102.082 43.5 102.092 43.5C102.101 43.5 102.11 43.5 102.12 43.5C102.129 43.5 102.139 43.5 102.148 43.5C102.157 43.5 102.166 43.5 102.176 43.5C102.185 43.5 102.194 43.5 102.203 43.5C102.212 43.5 102.221 43.5 102.23 43.5C102.24 43.5 102.249 43.5 102.258 43.5C102.267 43.5 102.276 43.5 102.285 43.5C102.294 43.5 102.302 43.5 102.311 43.5C102.32 43.5 102.329 43.5 102.338 43.5C102.347 43.5 102.356 43.5 102.364 43.5C102.373 43.5 102.382 43.5 102.39 43.5C102.399 43.5 102.408 43.5 102.416 43.5C102.425 43.5 102.434 43.5 102.442 43.5C102.451 43.5 102.459 43.5 102.468 43.5C102.476 43.5 102.485 43.5 102.493 43.5C102.501 43.5 102.51 43.5 102.518 43.5C102.527 43.5 102.535 43.5 102.543 43.5C102.551 43.5 102.56 43.5 102.568 43.5C102.576 43.5 102.584 43.5 102.592 43.5C102.601 43.5 102.609 43.5 102.617 43.5C102.625 43.5 102.633 43.5 102.641 43.5C102.649 43.5 102.657 43.5 102.665 43.5C102.673 43.5 102.681 43.5 102.689 43.5C102.696 43.5 102.704 43.5 102.712 43.5C102.72 43.5 102.728 43.5 102.735 43.5C102.743 43.5 102.751 43.5 102.759 43.5C102.766 43.5 102.774 43.5 102.781 43.5C102.789 43.5 102.797 43.5 102.804 43.5C102.812 43.5 102.819 43.5 102.827 43.5C102.834 43.5 102.841 43.5 102.849 43.5C102.856 43.5 102.864 43.5 102.871 43.5C102.878 43.5 102.886 43.5 102.893 43.5C102.9 43.5 102.907 43.5 102.915 43.5C102.922 43.5 102.929 43.5 102.936 43.5C102.943 43.5 102.95 43.5 102.957 43.5C102.964 43.5 102.971 43.5 102.978 43.5C102.985 43.5 102.992 43.5 102.999 43.5C103.006 43.5 103.013 43.5 103.02 43.5C103.027 43.5 103.033 43.5 103.04 43.5C103.047 43.5 103.054 43.5 103.06 43.5C103.067 43.5 103.074 43.5 103.08 43.5C103.087 43.5 103.094 43.5 103.1 43.5C103.107 43.5 103.113 43.5 103.12 43.5C103.126 43.5 103.133 43.5 103.139 43.5C103.146 43.5 103.152 43.5 103.158 43.5C103.165 43.5 103.171 43.5 103.177 43.5C103.184 43.5 103.19 43.5 103.196 43.5C103.202 43.5 103.208 43.5 103.215 43.5C103.221 43.5 103.227 43.5 103.233 43.5C103.239 43.5 103.245 43.5 103.251 43.5C103.257 43.5 103.263 43.5 103.269 43.5C103.275 43.5 103.281 43.5 103.287 43.5C103.293 43.5 103.298 43.5 103.304 43.5C103.31 43.5 103.316 43.5 103.321 43.5C103.327 43.5 103.333 43.5 103.338 43.5C103.344 43.5 103.35 43.5 103.355 43.5C103.361 43.5 103.366 43.5 103.372 43.5C103.377 43.5 103.383 43.5 103.388 43.5C103.394 43.5 103.399 43.5 103.405 43.5C103.41 43.5 103.415 43.5 103.421 43.5C103.426 43.5 103.431 43.5 103.436 43.5C103.442 43.5 103.447 43.5 103.452 43.5C103.457 43.5 103.462 43.5 103.467 43.5C103.472 43.5 103.478 43.5 103.483 43.5C103.488 43.5 103.493 43.5 103.497 43.5C103.502 43.5 103.507 43.5 103.512 43.5C103.517 43.5 103.522 43.5 103.527 43.5C103.532 43.5 103.536 43.5 103.541 43.5C103.546 43.5 103.55 43.5 103.555 43.5C103.56 43.5 103.564 43.5 103.569 43.5C103.574 43.5 103.578 43.5 103.583 43.5C103.587 43.5 103.592 43.5 103.596 43.5C103.601 43.5 103.605 43.5 103.609 43.5C103.614 43.5 103.618 43.5 103.622 43.5C103.627 43.5 103.631 43.5 103.635 43.5C103.639 43.5 103.643 43.5 103.648 43.5C103.652 43.5 103.656 43.5 103.66 43.5C103.664 43.5 103.668 43.5 103.672 43.5C103.676 43.5 103.68 43.5 103.684 43.5C103.688 43.5 103.692 43.5 103.696 43.5C103.7 43.5 103.703 43.5 103.707 43.5C103.711 43.5 103.715 43.5 103.719 43.5C103.722 43.5 103.726 43.5 103.73 43.5C103.733 43.5 103.737 43.5 103.74 43.5C103.744 43.5 103.748 43.5 103.751 43.5C103.755 43.5 103.758 43.5 103.761 43.5C103.765 43.5 103.768 43.5 103.772 43.5C103.775 43.5 103.778 43.5 103.782 43.5C103.785 43.5 103.788 43.5 103.791 43.5C103.795 43.5 103.798 43.5 103.801 43.5C103.804 43.5 103.807 43.5 103.81 43.5C103.813 43.5 103.816 43.5 103.819 43.5C103.822 43.5 103.825 43.5 103.828 43.5C103.831 43.5 103.834 43.5 103.837 43.5C103.84 43.5 103.842 43.5 103.845 43.5C103.848 43.5 103.851 43.5 103.853 43.5C103.856 43.5 103.859 43.5 103.861 43.5C103.864 43.5 103.867 43.5 103.869 43.5C103.872 43.5 103.874 43.5 103.877 43.5C103.879 43.5 103.882 43.5 103.884 43.5C103.886 43.5 103.889 43.5 103.891 43.5C103.893 43.5 103.896 43.5 103.898 43.5C103.9 43.5 103.902 43.5 103.905 43.5C103.907 43.5 103.909 43.5 103.911 43.5C103.913 43.5 103.915 43.5 103.917 43.5C103.919 43.5 103.921 43.5 103.923 43.5C103.925 43.5 103.927 43.5 103.929 43.5C103.931 43.5 103.933 43.5 103.935 43.5C103.936 43.5 103.938 43.5 103.94 43.5C103.942 43.5 103.943 43.5 103.945 43.5C103.947 43.5 103.948 43.5 103.95 43.5C103.951 43.5 103.953 43.5 103.955 43.5C103.956 43.5 103.958 43.5 103.959 43.5C103.96 43.5 103.962 43.5 103.963 43.5C103.964 43.5 103.966 43.5 103.967 43.5C103.968 43.5 103.97 43.5 103.971 43.5C103.972 43.5 103.973 43.5 103.974 43.5C103.976 43.5 103.977 43.5 103.978 43.5C103.979 43.5 103.98 43.5 103.981 43.5C103.982 43.5 103.983 43.5 103.984 43.5C103.984 43.5 103.985 43.5 103.986 43.5C103.987 43.5 103.988 43.5 103.989 43.5C103.989 43.5 103.99 43.5 103.991 43.5C103.991 43.5 103.992 43.5 103.993 43.5C103.993 43.5 103.994 43.5 103.994 43.5C103.995 43.5 103.995 43.5 103.996 43.5C103.996 43.5 103.997 43.5 103.997 43.5C103.998 43.5 103.998 43.5 103.998 43.5C103.998 43.5 103.999 43.5 103.999 43.5C103.999 43.5 103.999 43.5 104 43.5C104 43.5 104 43.5 104 43.5C104 43.5 104 43.5 104 38.5C104 33.5 104 33.5 104 33.5C104 33.5 104 33.5 104 33.5C103.999 33.5 103.999 33.5 103.999 33.5C103.999 33.5 103.998 33.5 103.998 33.5C103.998 33.5 103.998 33.5 103.997 33.5C103.997 33.5 103.996 33.5 103.996 33.5C103.995 33.5 103.995 33.5 103.994 33.5C103.994 33.5 103.993 33.5 103.993 33.5C103.992 33.5 103.991 33.5 103.991 33.5C103.99 33.5 103.989 33.5 103.989 33.5C103.988 33.5 103.987 33.5 103.986 33.5C103.985 33.5 103.984 33.5 103.984 33.5C103.983 33.5 103.982 33.5 103.981 33.5C103.98 33.5 103.979 33.5 103.978 33.5C103.977 33.5 103.976 33.5 103.974 33.5C103.973 33.5 103.972 33.5 103.971 33.5C103.97 33.5 103.968 33.5 103.967 33.5C103.966 33.5 103.964 33.5 103.963 33.5C103.962 33.5 103.96 33.5 103.959 33.5C103.958 33.5 103.956 33.5 103.955 33.5C103.953 33.5 103.951 33.5 103.95 33.5C103.948 33.5 103.947 33.5 103.945 33.5C103.943 33.5 103.942 33.5 103.94 33.5C103.938 33.5 103.936 33.5 103.935 33.5C103.933 33.5 103.931 33.5 103.929 33.5C103.927 33.5 103.925 33.5 103.923 33.5C103.921 33.5 103.919 33.5 103.917 33.5C103.915 33.5 103.913 33.5 103.911 33.5C103.909 33.5 103.907 33.5 103.905 33.5C103.902 33.5 103.9 33.5 103.898 33.5C103.896 33.5 103.893 33.5 103.891 33.5C103.889 33.5 103.886 33.5 103.884 33.5C103.882 33.5 103.879 33.5 103.877 33.5C103.874 33.5 103.872 33.5 103.869 33.5C103.867 33.5 103.864 33.5 103.861 33.5C103.859 33.5 103.856 33.5 103.853 33.5C103.851 33.5 103.848 33.5 103.845 33.5C103.842 33.5 103.84 33.5 103.837 33.5C103.834 33.5 103.831 33.5 103.828 33.5C103.825 33.5 103.822 33.5 103.819 33.5C103.816 33.5 103.813 33.5 103.81 33.5C103.807 33.5 103.804 33.5 103.801 33.5C103.798 33.5 103.795 33.5 103.791 33.5C103.788 33.5 103.785 33.5 103.782 33.5C103.778 33.5 103.775 33.5 103.772 33.5C103.768 33.5 103.765 33.5 103.761 33.5C103.758 33.5 103.755 33.5 103.751 33.5C103.748 33.5 103.744 33.5 103.74 33.5C103.737 33.5 103.733 33.5 103.73 33.5C103.726 33.5 103.722 33.5 103.719 33.5C103.715 33.5 103.711 33.5 103.707 33.5C103.703 33.5 103.7 33.5 103.696 33.5C103.692 33.5 103.688 33.5 103.684 33.5C103.68 33.5 103.676 33.5 103.672 33.5C103.668 33.5 103.664 33.5 103.66 33.5C103.656 33.5 103.652 33.5 103.648 33.5C103.643 33.5 103.639 33.5 103.635 33.5C103.631 33.5 103.627 33.5 103.622 33.5C103.618 33.5 103.614 33.5 103.609 33.5C103.605 33.5 103.601 33.5 103.596 33.5C103.592 33.5 103.587 33.5 103.583 33.5C103.578 33.5 103.574 33.5 103.569 33.5C103.564 33.5 103.56 33.5 103.555 33.5C103.55 33.5 103.546 33.5 103.541 33.5C103.536 33.5 103.532 33.5 103.527 33.5C103.522 33.5 103.517 33.5 103.512 33.5C103.507 33.5 103.502 33.5 103.497 33.5C103.493 33.5 103.488 33.5 103.483 33.5C103.478 33.5 103.472 33.5 103.467 33.5C103.462 33.5 103.457 33.5 103.452 33.5C103.447 33.5 103.442 33.5 103.436 33.5C103.431 33.5 103.426 33.5 103.421 33.5C103.415 33.5 103.41 33.5 103.405 33.5C103.399 33.5 103.394 33.5 103.388 33.5C103.383 33.5 103.377 33.5 103.372 33.5C103.366 33.5 103.361 33.5 103.355 33.5C103.35 33.5 103.344 33.5 103.338 33.5C103.333 33.5 103.327 33.5 103.321 33.5C103.316 33.5 103.31 33.5 103.304 33.5C103.298 33.5 103.293 33.5 103.287 33.5C103.281 33.5 103.275 33.5 103.269 33.5C103.263 33.5 103.257 33.5 103.251 33.5C103.245 33.5 103.239 33.5 103.233 33.5C103.227 33.5 103.221 33.5 103.215 33.5C103.208 33.5 103.202 33.5 103.196 33.5C103.19 33.5 103.184 33.5 103.177 33.5C103.171 33.5 103.165 33.5 103.158 33.5C103.152 33.5 103.146 33.5 103.139 33.5C103.133 33.5 103.126 33.5 103.12 33.5C103.113 33.5 103.107 33.5 103.1 33.5C103.094 33.5 103.087 33.5 103.08 33.5C103.074 33.5 103.067 33.5 103.06 33.5C103.054 33.5 103.047 33.5 103.04 33.5C103.033 33.5 103.027 33.5 103.02 33.5C103.013 33.5 103.006 33.5 102.999 33.5C102.992 33.5 102.985 33.5 102.978 33.5C102.971 33.5 102.964 33.5 102.957 33.5C102.95 33.5 102.943 33.5 102.936 33.5C102.929 33.5 102.922 33.5 102.915 33.5C102.907 33.5 102.9 33.5 102.893 33.5C102.886 33.5 102.878 33.5 102.871 33.5C102.864 33.5 102.856 33.5 102.849 33.5C102.841 33.5 102.834 33.5 102.827 33.5C102.819 33.5 102.812 33.5 102.804 33.5C102.797 33.5 102.789 33.5 102.781 33.5C102.774 33.5 102.766 33.5 102.759 33.5C102.751 33.5 102.743 33.5 102.735 33.5C102.728 33.5 102.72 33.5 102.712 33.5C102.704 33.5 102.696 33.5 102.689 33.5C102.681 33.5 102.673 33.5 102.665 33.5C102.657 33.5 102.649 33.5 102.641 33.5C102.633 33.5 102.625 33.5 102.617 33.5C102.609 33.5 102.601 33.5 102.592 33.5C102.584 33.5 102.576 33.5 102.568 33.5C102.56 33.5 102.551 33.5 102.543 33.5C102.535 33.5 102.527 33.5 102.518 33.5C102.51 33.5 102.501 33.5 102.493 33.5C102.485 33.5 102.476 33.5 102.468 33.5C102.459 33.5 102.451 33.5 102.442 33.5C102.434 33.5 102.425 33.5 102.416 33.5C102.408 33.5 102.399 33.5 102.39 33.5C102.382 33.5 102.373 33.5 102.364 33.5C102.356 33.5 102.347 33.5 102.338 33.5C102.329 33.5 102.32 33.5 102.311 33.5C102.302 33.5 102.294 33.5 102.285 33.5C102.276 33.5 102.267 33.5 102.258 33.5C102.249 33.5 102.24 33.5 102.23 33.5C102.221 33.5 102.212 33.5 102.203 33.5C102.194 33.5 102.185 33.5 102.176 33.5C102.166 33.5 102.157 33.5 102.148 33.5C102.139 33.5 102.129 33.5 102.12 33.5C102.11 33.5 102.101 33.5 102.092 33.5C102.082 33.5 102.073 33.5 102.063 33.5C102.054 33.5 102.044 33.5 102.035 33.5C102.025 33.5 102.016 33.5 102.006 33.5C101.996 33.5 101.987 33.5 101.977 33.5C101.967 33.5 101.958 33.5 101.948 33.5C101.938 33.5 101.928 33.5 101.918 33.5C101.909 33.5 101.899 33.5 101.889 33.5C101.879 33.5 101.869 33.5 101.859 33.5C101.849 33.5 101.839 33.5 101.829 33.5C101.819 33.5 101.809 33.5 101.799 33.5C101.789 33.5 101.779 33.5 101.769 33.5C101.759 33.5 101.748 33.5 101.738 33.5C101.728 33.5 101.718 33.5 101.707 33.5C101.697 33.5 101.687 33.5 101.677 33.5C101.666 33.5 101.656 33.5 101.645 33.5C101.635 33.5 101.625 33.5 101.614 33.5C101.604 33.5 101.593 33.5 101.583 33.5C101.572 33.5 101.561 33.5 101.551 33.5C101.54 33.5 101.53 33.5 101.519 33.5C101.508 33.5 101.498 33.5 101.487 33.5C101.476 33.5 101.465 33.5 101.454 33.5C101.444 33.5 101.433 33.5 101.422 33.5C101.411 33.5 101.4 33.5 101.389 33.5C101.378 33.5 101.367 33.5 101.356 33.5C101.345 33.5 101.334 33.5 101.323 33.5C101.312 33.5 101.301 33.5 101.29 33.5C101.279 33.5 101.268 33.5 101.257 33.5C101.245 33.5 101.234 33.5 101.223 33.5C101.212 33.5 101.2 33.5 101.189 33.5C101.178 33.5 101.166 33.5 101.155 33.5C101.144 33.5 101.132 33.5 101.121 33.5C101.109 33.5 101.098 33.5 101.086 33.5C101.075 33.5 101.063 33.5 101.052 33.5C101.04 33.5 101.029 33.5 101.017 33.5C101.005 33.5 100.994 33.5 100.982 33.5C100.97 33.5 100.958 33.5 100.947 33.5C100.935 33.5 100.923 33.5 100.911 33.5C100.899 33.5 100.888 33.5 100.876 33.5C100.864 33.5 100.852 33.5 100.84 33.5C100.828 33.5 100.816 33.5 100.804 33.5C100.792 33.5 100.78 33.5 100.768 33.5C100.756 33.5 100.744 33.5 100.731 33.5C100.719 33.5 100.707 33.5 100.695 33.5C100.683 33.5 100.67 33.5 100.658 33.5C100.646 33.5 100.634 33.5 100.621 33.5C100.609 33.5 100.597 33.5 100.584 33.5C100.572 33.5 100.559 33.5 100.547 33.5C100.534 33.5 100.522 33.5 100.509 33.5C100.497 33.5 100.484 33.5 100.472 33.5C100.459 33.5 100.446 33.5 100.434 33.5C100.421 33.5 100.409 33.5 100.396 33.5C100.383 33.5 100.37 33.5 100.358 33.5C100.345 33.5 100.332 33.5 100.319 33.5C100.306 33.5 100.293 33.5 100.281 33.5C100.268 33.5 100.255 33.5 100.242 33.5C100.229 33.5 100.216 33.5 100.203 33.5C100.19 33.5 100.177 33.5 100.164 33.5C100.15 33.5 100.137 33.5 100.124 33.5C100.111 33.5 100.098 33.5 100.085 33.5C100.071 33.5 100.058 33.5 100.045 33.5C100.032 33.5 100.018 33.5 100.005 33.5C99.9917 33.5 99.9783 33.5 99.9649 33.5C99.9515 33.5 99.9381 33.5 99.9246 33.5C99.9111 33.5 99.8977 33.5 99.8841 33.5C99.8706 33.5 99.8571 33.5 99.8435 33.5C99.8299 33.5 99.8163 33.5 99.8026 33.5C99.789 33.5 99.7753 33.5 99.7616 33.5C99.7479 33.5 99.7342 33.5 99.7204 33.5C99.7066 33.5 99.6928 33.5 99.679 33.5C99.6652 33.5 99.6513 33.5 99.6374 33.5C99.6235 33.5 99.6096 33.5 99.5956 33.5C99.5817 33.5 99.5677 33.5 99.5537 33.5C99.5397 33.5 99.5256 33.5 99.5116 33.5C99.4975 33.5 99.4834 33.5 99.4692 33.5C99.4551 33.5 99.4409 33.5 99.4267 33.5C99.4125 33.5 99.3983 33.5 99.3841 33.5C99.3698 33.5 99.3555 33.5 99.3412 33.5C99.3269 33.5 99.3125 33.5 99.2982 33.5C99.2838 33.5 99.2694 33.5 99.2549 33.5C99.2405 33.5 99.226 33.5 99.2115 33.5C99.197 33.5 99.1825 33.5 99.1679 33.5C99.1534 33.5 99.1388 33.5 99.1242 33.5C99.1095 33.5 99.0949 33.5 99.0802 33.5C99.0655 33.5 99.0508 33.5 99.0361 33.5C99.0213 33.5 99.0066 33.5 98.9918 33.5C98.977 33.5 98.9621 33.5 98.9473 33.5C98.9324 33.5 98.9175 33.5 98.9026 33.5C98.8877 33.5 98.8727 33.5 98.8577 33.5C98.8427 33.5 98.8277 33.5 98.8127 33.5C98.7977 33.5 98.7826 33.5 98.7675 33.5C98.7524 33.5 98.7372 33.5 98.7221 33.5C98.7069 33.5 98.6917 33.5 98.6765 33.5C98.6613 33.5 98.646 33.5 98.6308 33.5C98.6155 33.5 98.6002 33.5 98.5848 33.5C98.5695 33.5 98.5541 33.5 98.5387 33.5C98.5233 33.5 98.5079 33.5 98.4924 33.5C98.477 33.5 98.4615 33.5 98.446 33.5C98.4305 33.5 98.4149 33.5 98.3993 33.5C98.3838 33.5 98.3681 33.5 98.3525 33.5C98.3369 33.5 98.3212 33.5 98.3055 33.5C98.2898 33.5 98.2741 33.5 98.2583 33.5C98.2426 33.5 98.2268 33.5 98.211 33.5C98.1952 33.5 98.1793 33.5 98.1635 33.5C98.1476 33.5 98.1317 33.5 98.1158 33.5C98.0998 33.5 98.0839 33.5 98.0679 33.5C98.0519 33.5 98.0359 33.5 98.0198 33.5C98.0038 33.5 97.9877 33.5 97.9716 33.5C97.9555 33.5 97.9394 33.5 97.9232 33.5C97.907 33.5 97.8908 33.5 97.8746 33.5C97.8584 33.5 97.8421 33.5 97.8258 33.5C97.8096 33.5 97.7933 33.5 97.7769 33.5C97.7606 33.5 97.7442 33.5 97.7278 33.5C97.7114 33.5 97.695 33.5 97.6785 33.5C97.6621 33.5 97.6456 33.5 97.6291 33.5C97.6126 33.5 97.596 33.5 97.5794 33.5C97.5629 33.5 97.5463 33.5 97.5296 33.5C97.513 33.5 97.4964 33.5 97.4797 33.5C97.463 33.5 97.4463 33.5 97.4295 33.5C97.4128 33.5 97.396 33.5 97.3792 33.5C97.3624 33.5 97.3456 33.5 97.3287 33.5C97.3118 33.5 97.295 33.5 97.278 33.5C97.2611 33.5 97.2442 33.5 97.2272 33.5C97.2102 33.5 97.1932 33.5 97.1762 33.5C97.1592 33.5 97.1421 33.5 97.125 33.5C97.1079 33.5 97.0908 33.5 97.0736 33.5C97.0565 33.5 97.0393 33.5 97.0221 33.5C97.0049 33.5 96.9877 33.5 96.9704 33.5C96.9532 33.5 96.9359 33.5 96.9186 33.5C96.9012 33.5 96.8839 33.5 96.8665 33.5C96.8491 33.5 96.8317 33.5 96.8143 33.5C96.7969 33.5 96.7794 33.5 96.7619 33.5C96.7444 33.5 96.7269 33.5 96.7094 33.5C96.6918 33.5 96.6743 33.5 96.6566 33.5C96.639 33.5 96.6214 33.5 96.6038 33.5C96.5861 33.5 96.5684 33.5 96.5507 33.5C96.533 33.5 96.5152 33.5 96.4975 33.5C96.4797 33.5 96.4619 33.5 96.4441 33.5C96.4262 33.5 96.4084 33.5 96.3905 33.5C96.3726 33.5 96.3547 33.5 96.3368 33.5C96.3188 33.5 96.3009 33.5 96.2829 33.5C96.2649 33.5 96.2468 33.5 96.2288 33.5C96.2107 33.5 96.1927 33.5 96.1746 33.5C96.1564 33.5 96.1383 33.5 96.1201 33.5C96.102 33.5 96.0838 33.5 96.0656 33.5C96.0474 33.5 96.0291 33.5 96.0108 33.5C95.9926 33.5 95.9743 33.5 95.9559 33.5C95.9376 33.5 95.9192 33.5 95.9008 33.5C95.8825 33.5 95.864 33.5 95.8456 33.5C95.8272 33.5 95.8087 33.5 95.7902 33.5C95.7717 33.5 95.7532 33.5 95.7346 33.5C95.7161 33.5 95.6975 33.5 95.6789 33.5C95.6603 33.5 95.6416 33.5 95.623 33.5C95.6043 33.5 95.5856 33.5 95.5669 33.5C95.5482 33.5 95.5294 33.5 95.5107 33.5C95.4919 33.5 95.4731 33.5 95.4543 33.5C95.4354 33.5 95.4166 33.5 95.3977 33.5C95.3788 33.5 95.3599 33.5 95.341 33.5C95.322 33.5 95.3031 33.5 95.2841 33.5C95.2651 33.5 95.2461 33.5 95.227 33.5C95.208 33.5 95.1889 33.5 95.1698 33.5C95.1507 33.5 95.1316 33.5 95.1124 33.5C95.0933 33.5 95.0741 33.5 95.0549 33.5C95.0357 33.5 95.0164 33.5 94.9971 33.5C94.9779 33.5 94.9586 33.5 94.9393 33.5C94.92 33.5 94.9006 33.5 94.8812 33.5C94.8619 33.5 94.8425 33.5 94.823 33.5C94.8036 33.5 94.7842 33.5 94.7647 33.5C94.7452 33.5 94.7257 33.5 94.7061 33.5C94.6866 33.5 94.667 33.5 94.6475 33.5C94.6279 33.5 94.6083 33.5 94.5886 33.5C94.569 33.5 94.5493 33.5 94.5296 33.5C94.5099 33.5 94.4902 33.5 94.4704 33.5C94.4507 33.5 94.4309 33.5 94.4111 33.5C94.3913 33.5 94.3715 33.5 94.3516 33.5C94.3317 33.5 94.3119 33.5 94.2919 33.5C94.272 33.5 94.2521 33.5 94.2321 33.5C94.2122 33.5 94.1922 33.5 94.1722 33.5C94.1521 33.5 94.1321 33.5 94.112 33.5C94.092 33.5 94.0719 33.5 94.0517 33.5C94.0316 33.5 94.0115 33.5 93.9913 33.5C93.9711 33.5 93.9509 33.5 93.9307 33.5C93.9104 33.5 93.8902 33.5 93.8699 33.5C93.8496 33.5 93.8293 33.5 93.809 33.5C93.7886 33.5 93.7683 33.5 93.7479 33.5C93.7275 33.5 93.7071 33.5 93.6866 33.5C93.6662 33.5 93.6457 33.5 93.6252 33.5C93.6047 33.5 93.5842 33.5 93.5637 33.5C93.5431 33.5 93.5226 33.5 93.502 33.5C93.4814 33.5 93.4607 33.5 93.4401 33.5C93.4194 33.5 93.3987 33.5 93.378 33.5C93.3573 33.5 93.3366 33.5 93.3159 33.5C93.2951 33.5 93.2743 33.5 93.2535 33.5C93.2327 33.5 93.2119 33.5 93.191 33.5C93.1701 33.5 93.1493 33.5 93.1283 33.5C93.1074 33.5 93.0865 33.5 93.0655 33.5C93.0446 33.5 93.0236 33.5 93.0026 33.5C92.9815 33.5 92.9605 33.5 92.9394 33.5C92.9184 33.5 92.8973 33.5 92.8761 33.5C92.855 33.5 92.8339 33.5 92.8127 33.5C92.7915 33.5 92.7703 33.5 92.7491 33.5C92.7279 33.5 92.7066 33.5 92.6854 33.5C92.6641 33.5 92.6428 33.5 92.6215 33.5C92.6001 33.5 92.5788 33.5 92.5574 33.5C92.536 33.5 92.5146 33.5 92.4932 33.5C92.4718 33.5 92.4503 33.5 92.4288 33.5C92.4074 33.5 92.3858 33.5 92.3643 33.5C92.3428 33.5 92.3212 33.5 92.2996 33.5C92.2781 33.5 92.2565 33.5 92.2348 33.5C92.2132 33.5 92.1915 33.5 92.1698 33.5C92.1482 33.5 92.1264 33.5 92.1047 33.5C92.083 33.5 92.0612 33.5 92.0394 33.5C92.0176 33.5 91.9958 33.5 91.974 33.5C91.9522 33.5 91.9303 33.5 91.9084 33.5C91.8865 33.5 91.8646 33.5 91.8427 33.5C91.8207 33.5 91.7988 33.5 91.7768 33.5C91.7548 33.5 91.7328 33.5 91.7107 33.5C91.6887 33.5 91.6666 33.5 91.6445 33.5C91.6225 33.5 91.6003 33.5 91.5782 33.5C91.5561 33.5 91.5339 33.5 91.5117 33.5C91.4895 33.5 91.4673 33.5 91.4451 33.5C91.4228 33.5 91.4006 33.5 91.3783 33.5C91.356 33.5 91.3337 33.5 91.3113 33.5C91.289 33.5 91.2666 33.5 91.2442 33.5C91.2218 33.5 91.1994 33.5 91.177 33.5C91.1546 33.5 91.1321 33.5 91.1096 33.5C91.0871 33.5 91.0646 33.5 91.0421 33.5C91.0195 33.5 90.997 33.5 90.9744 33.5C90.9518 33.5 90.9292 33.5 90.9065 33.5C90.8839 33.5 90.8612 33.5 90.8385 33.5C90.8159 33.5 90.7931 33.5 90.7704 33.5C90.7477 33.5 90.7249 33.5 90.7021 33.5C90.6793 33.5 90.6565 33.5 90.6337 33.5C90.6109 33.5 90.588 33.5 90.5651 33.5C90.5422 33.5 90.5193 33.5 90.4964 33.5C90.4735 33.5 90.4505 33.5 90.4275 33.5C90.4045 33.5 90.3815 33.5 90.3585 33.5C90.3355 33.5 90.3124 33.5 90.2893 33.5C90.2662 33.5 90.2431 33.5 90.22 33.5C90.1969 33.5 90.1737 33.5 90.1506 33.5C90.1274 33.5 90.1042 33.5 90.0809 33.5C90.0577 33.5 90.0345 33.5 90.0112 33.5C89.9879 33.5 89.9646 33.5 89.9413 33.5C89.918 33.5 89.8946 33.5 89.8713 33.5C89.8479 33.5 89.8245 33.5 89.8011 33.5C89.7776 33.5 89.7542 33.5 89.7307 33.5C89.7073 33.5 89.6838 33.5 89.6603 33.5C89.6367 33.5 89.6132 33.5 89.5896 33.5C89.5661 33.5 89.5425 33.5 89.5189 33.5C89.4953 33.5 89.4716 33.5 89.448 33.5C89.4243 33.5 89.4006 33.5 89.3769 33.5C89.3532 33.5 89.3295 33.5 89.3057 33.5C89.282 33.5 89.2582 33.5 89.2344 33.5C89.2106 33.5 89.1867 33.5 89.1629 33.5C89.139 33.5 89.1152 33.5 89.0913 33.5C89.0674 33.5 89.0434 33.5 89.0195 33.5C88.9956 33.5 88.9716 33.5 88.9476 33.5C88.9236 33.5 88.8996 33.5 88.8755 33.5C88.8515 33.5 88.8274 33.5 88.8033 33.5C88.7793 33.5 88.7551 33.5 88.731 33.5C88.7069 33.5 88.6827 33.5 88.6585 33.5C88.6343 33.5 88.6101 33.5 88.5859 33.5C88.5617 33.5 88.5374 33.5 88.5131 33.5C88.4889 33.5 88.4646 33.5 88.4402 33.5C88.4159 33.5 88.3916 33.5 88.3672 33.5C88.3428 33.5 88.3184 33.5 88.294 33.5C88.2696 33.5 88.2452 33.5 88.2207 33.5C88.1962 33.5 88.1718 33.5 88.1472 33.5C88.1227 33.5 88.0982 33.5 88.0736 33.5C88.0491 33.5 88.0245 33.5 87.9999 33.5C87.9753 33.5 87.9507 33.5 87.926 33.5C87.9014 33.5 87.8767 33.5 87.852 33.5C87.8273 33.5 87.8026 33.5 87.7778 33.5C87.7531 33.5 87.7283 33.5 87.7035 33.5C87.6788 33.5 87.6539 33.5 87.6291 33.5C87.6043 33.5 87.5794 33.5 87.5545 33.5C87.5297 33.5 87.5048 33.5 87.4798 33.5C87.4549 33.5 87.4299 33.5 87.405 33.5C87.38 33.5 87.355 33.5 87.33 33.5C87.305 33.5 87.2799 33.5 87.2549 33.5C87.2298 33.5 87.2047 33.5 87.1796 33.5C87.1545 33.5 87.1294 33.5 87.1042 33.5C87.0791 33.5 87.0539 33.5 87.0287 33.5C87.0035 33.5 86.9782 33.5 86.953 33.5C86.9278 33.5 86.9025 33.5 86.8772 33.5C86.8519 33.5 86.8266 33.5 86.8013 33.5C86.7759 33.5 86.7506 33.5 86.7252 33.5C86.6998 33.5 86.6744 33.5 86.649 33.5C86.6235 33.5 86.5981 33.5 86.5726 33.5C86.5471 33.5 86.5216 33.5 86.4961 33.5C86.4706 33.5 86.4451 33.5 86.4195 33.5C86.394 33.5 86.3684 33.5 86.3428 33.5C86.3172 33.5 86.2915 33.5 86.2659 33.5C86.2402 33.5 86.2145 33.5 86.1889 33.5C86.1632 33.5 86.1374 33.5 86.1117 33.5C86.086 33.5 86.0602 33.5 86.0344 33.5C86.0086 33.5 85.9828 33.5 85.957 33.5C85.9312 33.5 85.9053 33.5 85.8794 33.5C85.8536 33.5 85.8277 33.5 85.8017 33.5C85.7758 33.5 85.7499 33.5 85.7239 33.5C85.698 33.5 85.672 33.5 85.646 33.5C85.62 33.5 85.5939 33.5 85.5679 33.5C85.5418 33.5 85.5158 33.5 85.4897 33.5C85.4636 33.5 85.4374 33.5 85.4113 33.5C85.3852 33.5 85.359 33.5 85.3328 33.5C85.3066 33.5 85.2804 33.5 85.2542 33.5C85.228 33.5 85.2017 33.5 85.1755 33.5C85.1492 33.5 85.1229 33.5 85.0966 33.5C85.0703 33.5 85.0439 33.5 85.0176 33.5C84.9912 33.5 84.9649 33.5 84.9385 33.5C84.9121 33.5 84.8856 33.5 84.8592 33.5C84.8327 33.5 84.8063 33.5 84.7798 33.5C84.7533 33.5 84.7268 33.5 84.7003 33.5C84.6737 33.5 84.6472 33.5 84.6206 33.5C84.594 33.5 84.5674 33.5 84.5408 33.5C84.5142 33.5 84.4876 33.5 84.4609 33.5C84.4342 33.5 84.4076 33.5 84.3809 33.5C84.3542 33.5 84.3274 33.5 84.3007 33.5C84.2739 33.5 84.2472 33.5 84.2204 33.5C84.1936 33.5 84.1668 33.5 84.14 33.5C84.1131 33.5 84.0863 33.5 84.0594 33.5C84.0325 33.5 84.0056 33.5 83.9787 33.5C83.9518 33.5 83.9249 33.5 83.8979 33.5C83.8709 33.5 83.844 33.5 83.817 33.5C83.79 33.5 83.7629 33.5 83.7359 33.5C83.7088 33.5 83.6818 33.5 83.6547 33.5C83.6276 33.5 83.6005 33.5 83.5734 33.5C83.5462 33.5 83.5191 33.5 83.4919 33.5C83.4648 33.5 83.4376 33.5 83.4104 33.5C83.3831 33.5 83.3559 33.5 83.3286 33.5C83.3014 33.5 83.2741 33.5 83.2468 33.5C83.2195 33.5 83.1922 33.5 83.1649 33.5C83.1375 33.5 83.1102 33.5 83.0828 33.5C83.0554 33.5 83.028 33.5 83.0006 33.5C82.9732 33.5 82.9457 33.5 82.9183 33.5C82.8908 33.5 82.8633 33.5 82.8358 33.5C82.8083 33.5 82.7808 33.5 82.7532 33.5C82.7257 33.5 82.6981 33.5 82.6705 33.5C82.6429 33.5 82.6153 33.5 82.5877 33.5C82.5601 33.5 82.5324 33.5 82.5048 33.5C82.4771 33.5 82.4494 33.5 82.4217 33.5C82.394 33.5 82.3662 33.5 82.3385 33.5C82.3107 33.5 82.283 33.5 82.2552 33.5C82.2274 33.5 82.1996 33.5 82.1717 33.5C82.1439 33.5 82.116 33.5 82.0882 33.5C82.0603 33.5 82.0324 33.5 82.0045 33.5C81.9766 33.5 81.9486 33.5 81.9207 33.5C81.8927 33.5 81.8647 33.5 81.8367 33.5C81.8087 33.5 81.7807 33.5 81.7527 33.5C81.7246 33.5 81.6966 33.5 81.6685 33.5C81.6404 33.5 81.6123 33.5 81.5842 33.5C81.5561 33.5 81.528 33.5 81.4998 33.5C81.4716 33.5 81.4435 33.5 81.4153 33.5C81.3871 33.5 81.3588 33.5 81.3306 33.5C81.3024 33.5 81.2741 33.5 81.2458 33.5C81.2175 33.5 81.1892 33.5 81.1609 33.5C81.1326 33.5 81.1043 33.5 81.0759 33.5C81.0475 33.5 81.0192 33.5 80.9908 33.5C80.9624 33.5 80.9339 33.5 80.9055 33.5C80.8771 33.5 80.8486 33.5 80.8201 33.5C80.7916 33.5 80.7631 33.5 80.7346 33.5C80.7061 33.5 80.6776 33.5 80.649 33.5C80.6205 33.5 80.5919 33.5 80.5633 33.5C80.5347 33.5 80.5061 33.5 80.4774 33.5C80.4488 33.5 80.4201 33.5 80.3914 33.5C80.3628 33.5 80.3341 33.5 80.3054 33.5C80.2766 33.5 80.2479 33.5 80.2192 33.5C80.1904 33.5 80.1616 33.5 80.1328 33.5C80.104 33.5 80.0752 33.5 80.0464 33.5C80.0175 33.5 79.9887 33.5 79.9598 33.5C79.931 33.5 79.9021 33.5 79.8731 33.5C79.8442 33.5 79.8153 33.5 79.7864 33.5C79.7574 33.5 79.7284 33.5 79.6994 33.5C79.6705 33.5 79.6414 33.5 79.6124 33.5C79.5834 33.5 79.5543 33.5 79.5253 33.5C79.4962 33.5 79.4671 33.5 79.438 33.5C79.4089 33.5 79.3798 33.5 79.3506 33.5C79.3215 33.5 79.2923 33.5 79.2632 33.5C79.234 33.5 79.2048 33.5 79.1756 33.5C79.1463 33.5 79.1171 33.5 79.0878 33.5C79.0586 33.5 79.0293 33.5 79 33.5V38.5Z" fill="white"/>
<path d="M96 26L108 39" stroke="white" stroke-width="10" stroke-linecap="round"/>
<path d="M98 77L110 90" stroke="white" stroke-width="10" stroke-linecap="round"/>
<path d="M96 52L108 39" stroke="white" stroke-width="10" stroke-linecap="round"/>
<path d="M98 103L110 90" stroke="white" stroke-width="10" stroke-linecap="round"/>
<path d="M21 21L110 110" stroke="white" stroke-width="10" stroke-linecap="round"/>
<path d="M19 34C16.2386 34 14 36.2386 14 39C14 41.7614 16.2386 44 19 44V39V34ZM19 39V44H39V39V34H19V39Z" fill="white"/>
</g>
<defs>
<clipPath id="clip0_1_20">
<rect width="128" height="128" fill="white"/>
</clipPath>
</defs>
</svg>
