<svg width="128" height="128" viewBox="0 0 128 128" fill="none" xmlns="http://www.w3.org/2000/svg">
<path d="M20.5 67.5C20.5 67.5 20.5 63.5 20.5 51.5C20.5 39.5 30.5 31 41.5 31C52.5 31 103.205 31 103.205 31M94 18C107.5 33 105 31 94 43.5" stroke="white" stroke-width="10" stroke-linecap="round"/>
<path d="M105.711 61C105.711 61 105.711 65 105.711 77C105.711 89 95.7113 97.5 84.7113 97.5C73.7113 97.5 23.0066 97.5 23.0066 97.5M32.2113 110.5C18.7113 95.5 21.2113 97.5 32.2113 85" stroke="white" stroke-width="10" stroke-linecap="round"/>
<line x1="55.4407" y1="53.8968" x2="64.8968" y2="50.5593" stroke="white" stroke-width="8" stroke-linecap="round"/>
<path d="M71 50C71 47.7909 69.2091 46 67 46C64.7909 46 63 47.7909 63 50H67H71ZM67 50H63V84H67H71V50H67Z" fill="white"/>
</svg>
